<svg width="219" height="215" viewBox="0 0 219 215" fill="none" xmlns="http://www.w3.org/2000/svg">
<g id="solidarity/rafiki">
<g id="background-complete">
<path id="Vector" d="M144.61 202.019H140.816V202.164H144.61V202.019Z" fill="#EBEBEB"/>
<path id="Vector_2" d="M103.473 165.023H19.1746C18.5134 165.023 17.8793 164.672 17.4118 164.048C16.9443 163.423 16.6816 162.576 16.6816 161.692V3.33139C16.6816 2.44785 16.9443 1.6005 17.4118 0.975742C17.8793 0.350985 18.5134 0 19.1746 0H103.473C104.135 0 104.769 0.350985 105.236 0.975742C105.704 1.6005 105.966 2.44785 105.966 3.33139V161.692C105.966 162.13 105.902 162.563 105.777 162.967C105.651 163.371 105.468 163.738 105.236 164.048C105.005 164.357 104.73 164.602 104.427 164.77C104.125 164.937 103.801 165.023 103.473 165.023ZM19.1746 0.145858C18.5427 0.1474 17.9371 0.483512 17.4903 1.08058C17.0435 1.67765 16.7919 2.48701 16.7908 3.33139V161.692C16.7919 162.536 17.0435 163.346 17.4903 163.943C17.9371 164.54 18.5427 164.876 19.1746 164.878H103.473C104.105 164.876 104.711 164.54 105.158 163.943C105.605 163.346 105.856 162.536 105.857 161.692V3.33139C105.856 2.48701 105.605 1.67765 105.158 1.08058C104.711 0.483512 104.105 0.1474 103.473 0.145858H19.1746Z" fill="#EBEBEB"/>
<path id="Vector_3" d="M197.916 165.023H113.608C112.947 165.022 112.314 164.67 111.847 164.046C111.379 163.422 111.116 162.575 111.115 161.692V3.33139C111.116 2.44832 111.379 1.60187 111.847 0.977444C112.314 0.353022 112.947 0.00154248 113.608 0H197.916C198.575 0.00308764 199.207 0.355434 199.673 0.979857C200.138 1.60428 200.4 2.44987 200.4 3.33139V161.692C200.4 162.574 200.138 163.419 199.673 164.044C199.207 164.668 198.575 165.02 197.916 165.023ZM113.608 0.145858C112.976 0.1474 112.371 0.483512 111.924 1.08058C111.477 1.67765 111.226 2.48701 111.224 3.33139V161.692C111.226 162.536 111.477 163.346 111.924 163.943C112.371 164.54 112.976 164.876 113.608 164.878H197.916C198.548 164.876 199.153 164.54 199.6 163.943C200.047 163.346 200.298 162.536 200.3 161.692V3.33139C200.298 2.48701 200.047 1.67765 199.6 1.08058C199.153 0.483512 198.548 0.1474 197.916 0.145858H113.608Z" fill="#EBEBEB"/>
<path id="Vector_4" d="M196.427 200.432H181.967V200.577H196.427V200.432Z" fill="#EBEBEB"/>
<path id="Vector_5" d="M181.531 195.018H173.152V195.163H181.531V195.018Z" fill="#EBEBEB"/>
<path id="Vector_6" d="M41.7611 195.998H22.9043V196.144H41.7611V195.998Z" fill="#EBEBEB"/>
<path id="Vector_7" d="M48.4141 195.998H45.6504V196.144H48.4141V195.998Z" fill="#EBEBEB"/>
<path id="Vector_8" d="M98.3011 198.46H57.4004V198.606H98.3011V198.46Z" fill="#EBEBEB"/>
<path id="Vector_9" d="M218.3 191.044H0V191.19H218.3V191.044Z" fill="#EBEBEB"/>
<path id="Vector_10" d="M39.0587 181.155H20.9922V190.899H39.0587V181.155Z" fill="#E0E0E0"/>
<path id="Vector_11" d="M56.6056 181.155H38.5391V190.899H56.6056V181.155Z" fill="#F5F5F5"/>
<path id="Vector_12" d="M74.2345 181.155H56.168V190.899H74.2345V181.155Z" fill="#E0E0E0"/>
<path id="Vector_13" d="M91.7775 181.155H73.7109V190.899H91.7775V181.155Z" fill="#F5F5F5"/>
<path id="Vector_14" d="M109.412 181.155H91.3457V190.899H109.412V181.155Z" fill="#E0E0E0"/>
<path id="Vector_15" d="M126.955 181.155H108.889V190.899H126.955V181.155Z" fill="#F5F5F5"/>
<path id="Vector_16" d="M144.588 181.155H126.521V190.899H144.588V181.155Z" fill="#E0E0E0"/>
<path id="Vector_17" d="M162.131 181.155H144.064V190.899H162.131V181.155Z" fill="#F5F5F5"/>
<path id="Vector_18" d="M179.766 181.155H161.699V190.899H179.766V181.155Z" fill="#E0E0E0"/>
<path id="Vector_19" d="M197.309 181.155H179.242V190.899H197.309V181.155Z" fill="#F5F5F5"/>
<path id="Vector_20" d="M62.2327 51.5985C63.87 50.9626 64.8174 48.3255 64.5991 46.056C64.4516 44.9142 64.0413 43.8622 63.4255 43.0466C62.8096 42.2309 62.0188 41.6921 61.163 41.5052C61.2198 40.5892 61.4512 39.9824 61.4556 39.0665C61.4455 37.09 61.0581 35.1498 60.33 33.4294C59.6019 31.709 58.5571 30.2655 57.2948 29.2356C54.7625 27.217 50.7108 27.1061 48.8422 29.0256C47.8961 30.0476 47.1349 31.3419 46.6155 32.8121C45.5947 32.039 44.4388 31.641 43.2655 31.6584C42.0922 31.6758 40.9433 32.1081 39.9356 32.9113C38.9497 33.7879 38.1533 34.9952 37.6262 36.4122C37.099 37.8292 36.8596 39.4064 36.9317 40.9859C36.0828 40.6156 35.1849 40.4897 34.2969 40.6164C33.409 40.7431 32.5511 41.1196 31.7799 41.7211C31.0169 42.3431 30.3989 43.2373 29.9955 44.303C29.5921 45.3688 29.4193 46.5639 29.4964 47.7537C29.7191 50.0875 30.8324 51.7619 33.0591 52.2578C33.0591 52.2578 46.3099 57.8063 62.2327 51.5985Z" fill="#F0F0F0"/>
<path id="Vector_21" d="M167.987 21.0502C168.709 20.4949 169.526 20.1998 170.359 20.1939C171.191 20.1881 172.011 20.4716 172.737 21.0167C173.463 21.5619 174.07 22.3498 174.499 23.3033C174.929 24.2568 175.165 25.3431 175.185 26.4555C175.205 27.5679 175.009 28.6682 174.615 29.6485C174.221 30.6288 173.643 31.4553 172.938 32.0469C172.232 32.6386 171.424 32.975 170.592 33.0233C169.76 33.0715 168.933 32.8299 168.192 32.3221C166.315 39.1541 160.159 39.1541 158.722 36.1961C156.304 38.3898 152.903 39.6558 150.017 38.9732C147.131 38.2906 145.524 37.2638 143.393 34.5741C142.636 33.5486 141.992 32.3836 141.481 31.1144C139.883 32.0187 136.53 32.1121 135.067 30.8694C134.649 30.4644 134.295 29.9532 134.024 29.365C133.754 28.7768 133.573 28.1232 133.492 27.4415C133.411 26.7598 133.431 26.0634 133.552 25.3922C133.672 24.721 133.891 24.0881 134.194 23.5298C135.674 20.8927 138.421 21.3303 139.818 22.2521C139.53 20.0117 139.953 17.6955 141.411 16.5228C142.09 15.9309 142.89 15.6364 143.7 15.6803C144.51 15.7242 145.289 16.1044 145.93 16.7678C147.091 12.853 150.427 9.32326 153.566 9.71999C155.137 9.9627 156.611 10.8578 157.782 12.2791C158.952 13.7004 159.759 15.5765 160.089 17.643C161.285 15.8577 162.896 14.6675 164.586 15.4668C166.276 16.2661 167.895 18.6581 167.987 21.0502Z" fill="#F0F0F0"/>
<path id="Vector_22" d="M118.755 73.8972C118.747 73.4174 118.658 72.9462 118.496 72.5182C118.334 72.0901 118.101 71.7163 117.817 71.424C117.532 71.1318 117.201 70.9287 116.85 70.8297C116.499 70.7306 116.135 70.7381 115.786 70.8517C116.057 68.2904 114.799 65.1691 112.948 64.4339C111.097 63.6988 108.949 65.0757 108.098 67.3919C107.713 66.8061 107.232 66.3465 106.693 66.0487C106.153 65.7509 105.57 65.6229 104.988 65.6746C104.406 65.7264 103.84 65.9564 103.335 66.347C102.83 66.7376 102.399 67.2782 102.076 67.927C101.752 68.5758 101.545 69.3154 101.469 70.0886C101.394 70.8618 101.453 71.6477 101.641 72.3857C101.829 73.1236 102.142 73.7937 102.556 74.3442C102.969 74.8946 103.471 75.3106 104.024 75.56C103.841 76.4112 103.895 77.3226 104.177 78.1244C104.459 78.9261 104.949 79.5637 105.557 79.9182C106.613 80.5016 108.29 80.5016 108.993 78.8913C109.866 80.805 111.647 81.5751 113.311 81.2251C114.874 80.8867 116.681 79.2181 116.245 77.1411L116.179 76.721C116.192 76.6276 118.799 77.1761 118.755 73.8972Z" fill="#F0F0F0"/>
<path id="Vector_23" d="M167.908 150.356L167.86 143.25V142.824L167.816 136.5V136.091L167.777 130.07V129.679L167.738 123.944V123.571L167.698 118.098V117.736L167.659 112.486V112.153L167.624 107.159V106.832L167.593 102.701C167.433 102.837 167.259 102.945 167.078 103.022V106.523H163.764L166.436 103.256C166.161 103.326 165.882 103.371 165.603 103.39L163.42 106.074L163.454 102.917C163.269 102.82 163.095 102.686 162.939 102.521L162.883 106.85V107.235L162.817 112.229V112.567L162.747 117.783V118.139L162.677 123.6V123.973L162.599 129.703V130.099L162.52 136.103V136.517L162.415 142.824V143.25L162.324 150.35L161.865 180.986L168.253 181.085L167.908 150.356ZM167.244 149.026L163.398 143.472H167.218L167.244 149.026ZM167.183 142.824H163.372L167.157 137.515L167.183 142.824ZM167.227 135.018L163.564 130H167.2L167.227 135.018ZM167.183 129.312H163.555L167.161 124.487L167.183 129.312ZM167.152 122.672L163.66 118.116H167.131L167.152 122.672ZM167.126 117.421H163.664L167.1 113.022L167.126 117.421ZM167.07 107.235V111.4L163.734 107.258L167.07 107.235ZM163.289 108.209L166.624 112.369H163.245L163.289 108.209ZM163.236 113.092H166.62L163.188 117.474L163.236 113.092ZM163.166 119.183L166.659 123.746H163.127L163.166 119.183ZM163.118 124.434H166.668L163.066 129.236L163.118 124.434ZM163.048 131.074L166.716 136.109H162.996L163.048 131.074ZM163.009 136.785H166.742L162.957 142.071L163.009 136.785ZM163.009 143.787L166.86 149.37H162.931L163.009 143.787Z" fill="#EBEBEB"/>
<path id="Vector_24" d="M167.533 102.019H167.271L167.092 101.797L165.564 103.67C165.844 103.651 166.123 103.606 166.398 103.536L167.018 102.772V103.291C167.199 103.213 167.372 103.105 167.533 102.97V102.019ZM162.896 102.054V102.807C163.052 102.974 163.226 103.11 163.412 103.209V102.042L162.896 102.054Z" fill="#EBEBEB"/>
<path id="Vector_25" d="M168.283 101.458C168.3 101.645 168.284 101.834 168.237 102.011C168.19 102.188 168.113 102.348 168.013 102.479L167.834 102.701C167.742 102.805 167.642 102.897 167.537 102.975C167.376 103.11 167.202 103.218 167.022 103.296C166.82 103.403 166.611 103.485 166.397 103.541C166.122 103.612 165.843 103.657 165.563 103.675H165.188C164.575 103.678 163.967 103.516 163.402 103.197C163.217 103.098 163.043 102.962 162.887 102.794L162.843 102.748L162.677 102.532C162.58 102.406 162.507 102.251 162.464 102.079C162.422 101.907 162.411 101.724 162.433 101.546L162.813 98.6988H161.809L165.301 96.3242L168.947 98.5413H167.921L168.283 101.458Z" fill="#EBEBEB"/>
<path id="Vector_26" d="M41.3379 56.3882V181.126H59.173V71.6274L41.3379 56.3882Z" fill="#F0F0F0"/>
<path id="Vector_27" d="M91.1309 105.916L91.2662 181.009H95.3441H119.047H123.125L123.304 105.916H91.1309Z" fill="#E6E6E6"/>
<path id="Vector_28" d="M97.3535 96.3594L97.3666 113.104H99.8945H114.564H117.088L117.114 96.3594H97.3535Z" fill="#E6E6E6"/>
<path id="Vector_29" d="M97.3321 113.104H93.1626L93.1582 108.086H97.3277L97.3321 113.104Z" fill="#FAFAFA"/>
<path id="Vector_30" d="M105.326 108.086H101.156V113.104H105.326V108.086Z" fill="#FAFAFA"/>
<path id="Vector_31" d="M113.32 108.086H109.15V113.104H113.32V108.086Z" fill="#FAFAFA"/>
<path id="Vector_32" d="M121.308 113.104H117.139L117.147 108.086H121.317L121.308 113.104Z" fill="#F0F0F0"/>
<path id="Vector_33" d="M97.2751 122.246H93.206L93.1973 117.351H97.2707L97.2751 122.246Z" fill="#F0F0F0"/>
<path id="Vector_34" d="M105.257 117.351H101.188V122.246H105.257V117.351Z" fill="#F0F0F0"/>
<path id="Vector_35" d="M113.237 117.351H109.168V122.246H113.237V117.351Z" fill="#FAFAFA"/>
<path id="Vector_36" d="M121.218 122.246H117.148L117.157 117.351H121.231L121.218 122.246Z" fill="#FAFAFA"/>
<path id="Vector_37" d="M97.2396 131.161H93.2665L93.2578 126.389H97.2352L97.2396 131.161Z" fill="#F0F0F0"/>
<path id="Vector_38" d="M105.212 126.389H101.234V131.167H105.212V126.389Z" fill="#FAFAFA"/>
<path id="Vector_39" d="M113.188 126.389H109.211V131.167H113.188V126.389Z" fill="#FAFAFA"/>
<path id="Vector_40" d="M105.299 105.916H101.055L101.051 100.799H105.299V105.916Z" fill="#FAFAFA"/>
<path id="Vector_41" d="M113.293 105.916H109.049V100.799H113.297L113.293 105.916Z" fill="#F0F0F0"/>
<path id="Vector_42" d="M121.157 131.161H117.18L117.188 126.389H121.166L121.157 131.161Z" fill="#F0F0F0"/>
<path id="Vector_43" d="M97.226 139.866H93.3447L93.3359 135.205H97.2217L97.226 139.866Z" fill="#FAFAFA"/>
<path id="Vector_44" d="M105.194 135.205H101.309V139.866H105.194V135.205Z" fill="#F0F0F0"/>
<path id="Vector_45" d="M113.157 139.866H109.271L109.276 135.205H113.162L113.157 139.866Z" fill="#F0F0F0"/>
<path id="Vector_46" d="M121.122 139.866H117.236L117.245 135.205H121.131L121.122 139.866Z" fill="#FAFAFA"/>
<path id="Vector_47" d="M97.3999 149.65H93.0732L93.0645 144.463H97.3955L97.3999 149.65Z" fill="#F0F0F0"/>
<path id="Vector_48" d="M105.353 149.65H101.021V144.463H105.353V149.65Z" fill="#FAFAFA"/>
<path id="Vector_49" d="M113.302 149.65H108.971V144.463H113.306L113.302 149.65Z" fill="#FAFAFA"/>
<path id="Vector_50" d="M121.249 149.65H116.922L116.926 144.463H121.262L121.249 149.65Z" fill="#F0F0F0"/>
<path id="Vector_51" d="M97.4269 157.917H93.1962L93.1875 152.853H97.4225L97.4269 157.917Z" fill="#F0F0F0"/>
<path id="Vector_52" d="M105.374 157.917H101.143L101.139 152.853H105.374V157.917Z" fill="#FAFAFA"/>
<path id="Vector_53" d="M113.319 157.917H109.088L109.092 152.853H113.323L113.319 157.917Z" fill="#F0F0F0"/>
<path id="Vector_54" d="M121.266 157.917H117.035L117.044 152.853H121.275L121.266 157.917Z" fill="#FAFAFA"/>
<path id="Vector_55" d="M97.3353 167.223H93.2138L93.2051 162.293H97.3309L97.3353 167.223Z" fill="#FAFAFA"/>
<path id="Vector_56" d="M105.268 162.293H101.143V167.223H105.268V162.293Z" fill="#FAFAFA"/>
<path id="Vector_57" d="M113.202 162.293H109.076V167.223H113.202V162.293Z" fill="#F0F0F0"/>
<path id="Vector_58" d="M121.13 167.223H117.004L117.013 162.293H121.143L121.13 167.223Z" fill="#F0F0F0"/>
<path id="Vector_59" d="M97.3389 175.683H93.3091L93.3047 170.87H97.3345L97.3389 175.683Z" fill="#F0F0F0"/>
<path id="Vector_60" d="M121.117 175.683H117.092L117.096 170.87H121.126L121.117 175.683Z" fill="#FAFAFA"/>
<path id="Vector_61" d="M113.223 170.87H101.199L101.221 172.083H101.553L101.562 181.01H102.762L102.758 172.083H111.682L111.673 181.01H112.874L112.887 172.083H113.245L113.223 170.87Z" fill="#F5F5F5"/>
<path id="Vector_62" d="M107.272 181.01H102.814V172.083H107.277L107.272 181.01Z" fill="#E6E6E6"/>
<path id="Vector_63" d="M111.617 181.01H107.164V172.083H111.626L111.617 181.01Z" fill="#EBEBEB"/>
<path id="Vector_64" d="M162.506 132.905L162.589 181.009H157.787H129.866H125.064L124.719 132.905H162.506Z" fill="#F5F5F5"/>
<path id="Vector_65" d="M155.324 143.6H160.009L159.996 137.981H155.307L155.324 143.6Z" fill="#E6E6E6"/>
<path id="Vector_66" d="M145.977 143.6H150.662L150.64 137.981H145.955L145.977 143.6Z" fill="#E6E6E6"/>
<path id="Vector_67" d="M136.63 143.6H141.315L141.284 137.981H136.6L136.63 143.6Z" fill="#E6E6E6"/>
<path id="Vector_68" d="M127.277 143.6H131.962L131.927 137.981H127.242L127.277 143.6Z" fill="#E6E6E6"/>
<path id="Vector_69" d="M155.146 154.562H160.193L160.185 148.512H155.129L155.146 154.562Z" fill="#E6E6E6"/>
<path id="Vector_70" d="M145.815 154.562H150.862L150.845 148.512H145.789L145.815 154.562Z" fill="#E6E6E6"/>
<path id="Vector_71" d="M136.486 154.562H141.533L141.507 148.512H136.451L136.486 154.562Z" fill="#E6E6E6"/>
<path id="Vector_72" d="M127.155 154.562H132.202L132.167 148.512H127.111L127.155 154.562Z" fill="#E6E6E6"/>
<path id="Vector_73" d="M155.277 164.591H160.18L160.167 158.728H155.26L155.277 164.591Z" fill="#E6E6E6"/>
<path id="Vector_74" d="M145.955 164.591H150.858L150.837 158.728H145.934L145.955 164.591Z" fill="#E6E6E6"/>
<path id="Vector_75" d="M136.634 164.591H141.537L141.507 158.728H136.604L136.634 164.591Z" fill="#E6E6E6"/>
<path id="Vector_76" d="M127.313 164.591H132.211L132.176 158.728H127.273L127.313 164.591Z" fill="#E6E6E6"/>
<path id="Vector_77" d="M155.38 174.877H160.135L160.122 169.201H155.367L155.38 174.877Z" fill="#E6E6E6"/>
<path id="Vector_78" d="M127.457 174.877H132.212L132.177 169.201H127.418L127.457 174.877Z" fill="#E6E6E6"/>
<path id="Vector_79" d="M136.416 169.201H151.116L151.121 170.916H150.182L150.217 181.009H148.859L148.82 170.916H138.734L138.787 181.009H137.425L137.372 170.916H136.429L136.416 169.201Z" fill="#F5F5F5"/>
<path id="Vector_80" d="M143.856 181.009H148.895L148.855 170.916H143.812L143.856 181.009Z" fill="#E6E6E6"/>
<path id="Vector_81" d="M138.752 181.009H143.79L143.742 170.916H138.699L138.752 181.009Z" fill="#EBEBEB"/>
<path id="Vector_82" d="M22.9835 98.9556L22.918 181.009H27.3757H53.2748H57.7325L58.1385 98.9556H22.9835Z" fill="#F5F5F5"/>
<path id="Vector_83" d="M25.1483 101.324L25.1396 111.313L25.1352 114.055L25.1309 116.797H29.6933L29.6977 114.055L29.7021 111.313L29.7152 101.324H25.1483Z" fill="#E6E6E6"/>
<path id="Vector_84" d="M33.8841 101.324L33.8666 111.313L33.8579 114.055L33.8535 116.797H38.416L38.4204 114.055L38.4291 111.313L38.4553 101.324H33.8841Z" fill="#E6E6E6"/>
<path id="Vector_85" d="M42.6242 101.324L42.5936 111.313L42.5849 114.055L42.5762 116.797H47.1343L47.1474 114.055L47.1561 111.313L47.191 101.324H42.6242Z" fill="#E6E6E6"/>
<path id="Vector_86" d="M51.3619 101.324L51.3226 111.313L51.3051 115.548L51.3008 116.797H55.8589L55.8633 115.548L55.8851 111.313L55.9331 101.324H51.3619Z" fill="#E6E6E6"/>
<path id="Vector_87" d="M25.1615 121.324L25.1528 131.295L25.1484 134.037V136.773H29.7153L29.7196 134.037L29.724 131.295L29.7371 121.324H25.1615Z" fill="#E6E6E6"/>
<path id="Vector_88" d="M33.8763 121.324L33.8544 131.295L33.8501 135.157L33.8457 136.773H38.4125L38.4169 135.157L38.4256 131.295L38.4518 121.324H33.8763Z" fill="#E6E6E6"/>
<path id="Vector_89" d="M42.591 121.324L42.5604 131.295L42.5517 134.037L42.543 136.773H47.1098L47.1185 134.037L47.1316 131.295L47.1666 121.324H42.591Z" fill="#E6E6E6"/>
<path id="Vector_90" d="M51.3057 121.324L51.2621 131.295L51.2533 134.037L51.2402 136.773H55.8071L55.8202 134.037L55.8333 131.295L55.8813 121.324H51.3057Z" fill="#E6E6E6"/>
<path id="Vector_91" d="M25.1659 141.08L25.1528 151.01V153.74L25.1484 156.465H29.7065L29.7109 153.74L29.7153 151.01L29.7327 141.08H25.1659Z" fill="#E6E6E6"/>
<path id="Vector_92" d="M33.8548 141.08L33.8373 151.01L33.8286 153.74L33.8242 156.465H38.3823L38.3911 153.74L38.3998 151.01L38.426 141.08H33.8548Z" fill="#E6E6E6"/>
<path id="Vector_93" d="M42.5461 141.08L42.5155 151.01L42.5068 153.74L42.498 156.465H47.0562L47.0692 153.74L47.078 151.01L47.1173 141.08H42.5461Z" fill="#E6E6E6"/>
<path id="Vector_94" d="M51.2393 141.08L51.1957 151.01L51.1782 154.779L51.1738 156.465H55.7319L55.7407 154.779L55.7581 151.01L55.8062 141.08H51.2393Z" fill="#E6E6E6"/>
<path id="Vector_95" d="M53.5176 160.554H51.2603H47.0341H42.524H38.2977H33.7876H25.0512L25.0469 165.945H33.7789H38.2846H42.5065H47.0166H51.2385H53.4914H55.7486L55.7748 160.554H53.5176Z" fill="#E6E6E6"/>
<path id="Vector_96" d="M46.9125 169.93H33.7708L33.7402 171.254H34.1375L34.1201 181.009H35.4342L35.4517 171.254H45.2054L45.1704 181.009H46.4802L46.5195 171.254H46.8819L46.9125 169.93Z" fill="#FAFAFA"/>
<path id="Vector_97" d="M40.3583 181.01H35.4902L35.5121 171.255H40.3889L40.3583 181.01Z" fill="#E6E6E6"/>
<path id="Vector_98" d="M45.1103 181.01H40.2422L40.2684 171.255H45.1452L45.1103 181.01Z" fill="#E6E6E6"/>
<path id="Vector_99" d="M89.5906 110.297L89.953 181.009H86.1109H63.7919H59.9542L59.2949 110.297H89.5906Z" fill="#E6E6E6"/>
<path id="Vector_100" d="M78.8893 163.542H80.5266H87.8658L87.8789 165.805L87.892 168.069L87.9357 176.284H84.1373L84.0849 167.841H80.3738H78.9155H76.7762L76.75 163.542H78.8893Z" fill="#F0F0F0"/>
<path id="Vector_101" d="M64.403 163.542H65.87H72.8381L72.8731 167.841H65.6604L65.7303 176.284H61.9319L61.8577 168.069L61.8271 164.796L61.8184 163.542H64.403Z" fill="#F0F0F0"/>
<path id="Vector_102" d="M69.7113 171.482H80.05L80.0587 172.69H80.1722L80.2246 181.009H79.1069L79.0502 172.69H70.7329L70.8028 181.009H69.6807L69.6152 172.69H69.72L69.7113 171.482Z" fill="#F5F5F5"/>
<path id="Vector_103" d="M74.9064 181.009H79.0628L79.006 172.689H74.8496L74.9064 181.009Z" fill="#EBEBEB"/>
<path id="Vector_104" d="M70.8424 181.009H74.9944L74.9377 172.689H70.7812L70.8424 181.009Z" fill="#E0E0E0"/>
<path id="Vector_105" d="M76.2031 113.156H87.7294L87.7992 126.429H76.2948L76.2031 113.156Z" fill="#F0F0F0"/>
<path id="Vector_106" d="M61.2598 113.156H72.7904L72.8864 126.429H61.382L61.2598 113.156Z" fill="#F0F0F0"/>
<path id="Vector_107" d="M76.5234 129.842H87.5563L87.6305 142.532H76.6108L76.5234 129.842Z" fill="#F0F0F0"/>
<path id="Vector_108" d="M61.6035 129.842H72.6408L72.7368 142.532H61.717L61.6035 129.842Z" fill="#F0F0F0"/>
<path id="Vector_109" d="M76.6367 147.094H87.7351L87.8049 159.819H76.724L76.6367 147.094Z" fill="#F0F0F0"/>
<path id="Vector_110" d="M61.7656 147.094H72.8596L72.9557 159.819H61.8748L61.7656 147.094Z" fill="#F0F0F0"/>
<path id="Vector_111" d="M167.863 180.753V121.085L181.843 62.4214H196.068V181.103L167.863 180.753Z" fill="#EBEBEB"/>
<path id="Vector_112" d="M181.843 62.4214L167.863 121.085L196.068 62.4214H181.843Z" fill="#F5F5F5"/>
</g>
<g id="Shadow">
<path id="path" d="M109.15 215C155.903 215 193.803 212.043 193.803 208.395C193.803 204.748 155.903 201.791 109.15 201.791C62.3982 201.791 24.498 204.748 24.498 208.395C24.498 212.043 62.3982 215 109.15 215Z" fill="#F5F5F5"/>
</g>
<g id="characters-3-and-4">
<path id="Vector_113" d="M168.964 66.7736L168.527 80.6009C168.496 81.5927 168.263 82.5544 167.854 83.3828C167.445 84.2113 166.875 84.8752 166.204 85.3034C165.471 85.7701 164.755 86.2194 164.419 86.4119C163.615 86.9137 162.821 87.3337 162.026 87.748C160.424 88.5823 158.835 89.3407 157.193 90.035L155.713 84.895C157.053 84.2766 162.406 81.6394 164.262 80.6593L166.645 66.4936C166.436 66.1435 168.964 66.7736 168.964 66.7736Z" fill="#EBB376"/>
<path id="Vector_114" d="M168.753 67.8761L169.67 63.2495H166.286C166.286 63.2495 166.024 65.8925 167.159 67.2402L168.753 67.8761Z" fill="#EBB376"/>
<path id="Vector_115" d="M169.15 60.6652L167.893 60.3268C167.648 60.2653 167.396 60.325 167.182 60.4947C166.968 60.6644 166.808 60.9325 166.732 61.2487L166.295 63.2615H169.679L169.862 62.0305C169.883 61.8782 169.882 61.7219 169.857 61.5705C169.833 61.4191 169.786 61.2756 169.72 61.1486C169.654 61.0215 169.569 60.9133 169.472 60.8303C169.374 60.7474 169.265 60.6912 169.15 60.6652Z" fill="#EBB376"/>
<path id="Vector_116" d="M153.043 84.7316C154.161 82.4328 162.099 82.147 162.099 82.147L162.457 89.5449C162.457 89.5449 157.532 91.5169 154.554 91.4819C152.327 90.7993 152.301 86.7619 153.043 84.7316Z" fill="#9A062D"/>
<path id="Vector_117" d="M153.043 84.7316C154.161 82.4328 162.099 82.147 162.099 82.147L162.457 89.5449C162.457 89.5449 157.532 91.5169 154.554 91.4819C152.327 90.7993 152.301 86.7619 153.043 84.7316Z" fill="#9A062D"/>
<path id="Vector_118" opacity="0.1" d="M153.043 84.7316C154.161 82.4328 162.099 82.147 162.099 82.147L162.457 89.5449C162.457 89.5449 157.532 91.5169 154.554 91.4819C152.327 90.7993 152.301 86.7619 153.043 84.7316Z" fill="white"/>
<path id="Vector_119" d="M140.099 77.4794C140.099 79.2297 139.994 77.4794 140.815 80.5366C141.636 83.5937 141.073 87.0535 137.676 86.2367C134.279 85.4199 132.55 86.4875 130.293 87.246C128.036 88.0045 124.98 85.064 126.434 81.5634C127.888 78.0628 127.66 75.8399 126.434 75.6941C124.22 75.4199 124.687 70.1515 126.508 67.246C127.94 64.9648 127.94 64.9648 131.197 64.3814C141.588 62.5202 140.108 75.7291 140.099 77.4794Z" fill="#263238"/>
<path id="Vector_120" d="M127.769 190.158C127.141 193.973 126.219 207.077 126.219 207.077L122.949 207.497C122.949 207.497 123.181 194.428 122.949 190.694L127.769 190.158Z" fill="#CB7A63"/>
<path id="Vector_121" d="M121.229 206.418C120.857 206.506 120.475 206.413 120.15 206.156C120.112 206.083 120.092 205.996 120.092 205.908C120.092 205.819 120.112 205.732 120.15 205.66C120.176 205.591 120.212 205.53 120.255 205.48C120.299 205.43 120.349 205.392 120.404 205.368C120.993 205.088 122.298 205.922 122.355 205.951C122.372 205.959 122.386 205.973 122.396 205.992C122.406 206.011 122.412 206.033 122.412 206.056C122.412 206.08 122.406 206.102 122.396 206.121C122.386 206.14 122.372 206.154 122.355 206.161C121.986 206.29 121.609 206.376 121.229 206.418ZM120.604 205.537C120.551 205.544 120.498 205.559 120.447 205.584C120.412 205.595 120.38 205.617 120.352 205.647C120.324 205.677 120.301 205.716 120.286 205.759C120.233 205.905 120.26 205.975 120.286 206.01C120.469 206.307 121.373 206.226 122.032 206.051C121.586 205.754 121.101 205.572 120.604 205.514V205.537Z" fill="#9A062D"/>
<path id="Vector_122" d="M122.308 206.15H122.273C121.836 205.94 120.911 204.983 120.963 204.434C120.963 204.3 121.033 204.137 121.264 204.084C121.348 204.064 121.434 204.067 121.518 204.092C121.601 204.117 121.68 204.164 121.749 204.23C122.234 204.691 122.399 205.981 122.408 206.033C122.411 206.053 122.409 206.074 122.402 206.092C122.396 206.111 122.386 206.127 122.373 206.138C122.364 206.148 122.353 206.154 122.342 206.156C122.33 206.158 122.319 206.156 122.308 206.15ZM121.325 204.294H121.273C121.12 204.329 121.116 204.411 121.112 204.44C121.112 204.773 121.718 205.531 122.181 205.841C122.11 205.3 121.916 204.801 121.627 204.411C121.539 204.329 121.432 204.29 121.325 204.3V204.294Z" fill="#9A062D"/>
<path id="Vector_123" d="M122.652 205.444L126.581 205.065C126.653 205.058 126.724 205.083 126.784 205.137C126.843 205.191 126.887 205.27 126.909 205.362L127.848 209.557C127.868 209.646 127.876 209.739 127.87 209.831C127.863 209.923 127.843 210.013 127.811 210.095C127.778 210.177 127.734 210.25 127.68 210.308C127.627 210.367 127.565 210.411 127.498 210.438L127.389 210.467C125.975 210.572 124.713 210.59 122.953 210.759C120.875 210.963 121.421 211.243 118.98 211.529C117.509 211.698 117.12 209.487 117.736 209.318C120.565 208.559 120.792 207.381 121.827 205.905C122.053 205.627 122.345 205.463 122.652 205.444Z" fill="#263238"/>
<path id="Vector_124" d="M134.554 145.42C134.362 146.519 134.081 147.587 133.716 148.606C132.445 152.264 129.695 168.699 129.695 168.699C132.127 178.979 128.106 199.527 127.927 200.391L122.443 200.869C122.377 199.994 122.308 199.02 122.233 197.981C121.683 190.263 121.937 179.37 121.526 169.901C120.845 154.271 125.425 121.546 125.425 121.546L136.047 120.782L137.637 130.117C138.11 132.809 138.077 135.617 137.539 138.288C137.001 140.958 135.975 143.409 134.554 145.42Z" fill="#263238"/>
<path id="Vector_125" opacity="0.2" d="M133.921 147.748C132.611 151.482 130.498 159.639 130.498 159.639C131.485 155.286 132.476 143.431 134.035 137.941L133.921 147.748Z" fill="black"/>
<path id="Vector_126" d="M147.814 205.7L144.758 207.112C144.758 207.112 142.898 199.113 141.898 194.79L146.483 194.119C146.609 196.908 147.814 205.7 147.814 205.7Z" fill="#CB7A63"/>
<path id="Vector_127" d="M142.806 205.957C142.433 206.03 142.053 205.916 141.74 205.636C141.701 205.564 141.68 205.477 141.68 205.388C141.68 205.299 141.701 205.212 141.74 205.14C141.797 205.006 141.891 204.907 142.002 204.866C142.596 204.615 143.875 205.519 143.932 205.56C143.948 205.571 143.96 205.589 143.968 205.61C143.976 205.631 143.979 205.655 143.977 205.678C143.974 205.701 143.967 205.723 143.955 205.741C143.943 205.758 143.927 205.77 143.91 205.776C143.547 205.88 143.177 205.941 142.806 205.957ZM142.212 205.047C142.157 205.046 142.102 205.058 142.05 205.082C142.015 205.092 141.982 205.112 141.953 205.141C141.924 205.171 141.901 205.208 141.884 205.251C141.828 205.391 141.849 205.461 141.884 205.502C142.059 205.805 142.967 205.776 143.631 205.636C143.19 205.322 142.708 205.122 142.212 205.047Z" fill="#9A062D"/>
<path id="Vector_128" d="M143.892 205.776C143.881 205.782 143.869 205.782 143.858 205.776C143.421 205.543 142.548 204.533 142.591 203.991C142.591 203.857 142.67 203.699 142.901 203.658C142.986 203.642 143.072 203.648 143.154 203.677C143.237 203.706 143.314 203.758 143.382 203.828C143.853 204.312 143.98 205.607 143.984 205.665C143.987 205.685 143.985 205.706 143.978 205.725C143.972 205.743 143.962 205.759 143.949 205.77C143.931 205.781 143.911 205.783 143.892 205.776ZM142.963 203.863H142.915C142.762 203.863 142.753 203.968 142.749 203.997C142.749 204.323 143.321 205.117 143.775 205.449C143.72 204.907 143.541 204.4 143.264 203.997C143.18 203.903 143.072 203.855 142.963 203.863Z" fill="#9A062D"/>
<path id="Vector_129" d="M144.257 205.088L148.186 204.919C148.258 204.915 148.329 204.943 148.387 205.001C148.445 205.058 148.487 205.141 148.505 205.234L149.317 209.475C149.335 209.565 149.339 209.658 149.33 209.749C149.32 209.841 149.298 209.929 149.263 210.009C149.228 210.088 149.181 210.158 149.126 210.214C149.071 210.27 149.008 210.31 148.941 210.333C148.905 210.342 148.868 210.342 148.832 210.333C147.418 210.362 146.151 210.333 144.392 210.391C142.309 210.485 142.846 210.794 140.397 210.946C138.926 211.033 138.603 208.805 139.223 208.67C142.074 208.087 142.344 206.92 143.414 205.479C143.65 205.216 143.95 205.077 144.257 205.088Z" fill="#263238"/>
<path id="Vector_130" d="M147.954 200.158L142.959 200.928C142.667 200.088 142.357 199.178 142.02 198.145C139.038 189.154 134.555 177.678 133.433 167.667C131.721 152.363 133.66 121.12 133.66 121.12L144.046 119.732C145.515 124.442 146.203 129.522 146.063 134.621C145.67 153.034 141.99 166.366 141.99 166.366C146.766 175.683 147.928 199.324 147.954 200.158Z" fill="#263238"/>
<path id="Vector_131" d="M148.744 197.159L148.526 199.965L148.129 200.134L147.954 200.158L142.959 200.928L142.667 200.968L141.658 201.126L141.344 198.232L142.02 198.139L142.357 198.098L147.832 197.369L148.569 197.27L148.744 197.159Z" fill="#9A062D"/>
<path id="Vector_132" d="M157.931 82.824C155.581 83.848 153.084 84.1277 150.64 83.6408C150.64 83.6408 146.129 87.2814 144.2 88.7516C142.733 87.1716 141.792 84.8823 141.58 82.3806C144.2 81.5638 147.199 80.006 149.814 79.2709C151.997 78.6875 158.044 79.9477 158.044 79.9477L157.931 82.824Z" fill="#CB7A63"/>
<path id="Vector_133" d="M158.049 79.9473C158.988 79.7606 160.232 79.6847 160.73 79.6614C160.87 79.6515 161.009 79.7005 161.127 79.8014C161.498 80.1223 162.341 80.8341 162.681 81.0558C162.84 81.173 162.97 81.3513 163.052 81.5676C163.135 81.784 163.167 82.0284 163.144 82.2693L163.057 83.2203C163.046 83.4536 162.966 83.6714 162.835 83.8266C162.704 83.9817 162.533 84.0616 162.358 84.0488C161.808 83.9905 160.538 84.0488 160.538 84.0488C160.538 84.0488 159.555 83.6812 157.918 82.8411L158.049 79.9473Z" fill="#CB7A63"/>
<path id="Vector_134" d="M147.469 86.715C147.469 86.715 143.588 89.7547 142.269 90.5248C139.549 92.1176 137.903 87.4968 137.938 86.4408C137.958 85.5503 138.203 84.695 138.632 84.0137C140.073 81.2424 145.989 79.9297 145.989 79.9297C146.319 82.2495 146.814 84.5217 147.469 86.715Z" fill="#9A062D"/>
<path id="Vector_135" opacity="0.2" d="M147.469 86.715C147.469 86.715 143.588 89.7547 142.269 90.5248C139.549 92.1176 137.903 87.4968 137.938 86.4408C137.958 85.5503 138.203 84.695 138.632 84.0137C140.073 81.2424 145.989 79.9297 145.989 79.9297C146.319 82.2495 146.814 84.5217 147.469 86.715Z" fill="black"/>
<path id="Vector_136" d="M124.05 90.5835L120.474 99.3058L112.834 108.985C112.834 108.985 111 108.897 110.092 109.609L111.943 113.886C112.775 113.52 113.478 112.76 113.921 111.75C113.921 111.75 120.688 109.697 124.316 102.211C125.953 98.839 128.953 93.4598 129.045 91.8787C129.136 90.2976 128.46 87.9814 127.045 87.8647C125.63 87.748 124.866 88.3898 124.05 90.5835Z" fill="#CB7A63"/>
<path id="Vector_137" d="M123.631 88.8916L120.387 95.3735L126.827 99.7201C126.827 99.7201 129.35 96.5929 129.778 92.0479C130.136 88.2673 128.276 84.7667 125.687 86.1145C125.222 86.3692 124.801 86.7464 124.447 87.2235C124.094 87.7006 123.816 88.2679 123.631 88.8916Z" fill="#9A062D"/>
<path id="Vector_138" opacity="0.2" d="M123.631 88.8916L120.387 95.3735L126.827 99.7201C126.827 99.7201 129.35 96.5929 129.778 92.0479C130.136 88.2673 128.276 84.7667 125.687 86.1145C125.222 86.3692 124.801 86.7464 124.447 87.2235C124.094 87.7006 123.816 88.2679 123.631 88.8916Z" fill="black"/>
<path id="Vector_139" d="M110.092 109.568L109.026 110.735C108.82 110.957 108.683 111.273 108.642 111.623C108.601 111.972 108.658 112.33 108.804 112.626L109.441 113.915C109.571 114.19 109.767 114.398 109.997 114.504C110.228 114.61 110.478 114.608 110.707 114.498L111.943 113.915L110.092 109.568Z" fill="#CB7A63"/>
<path id="Vector_140" d="M140.824 81.937C138.536 83.2555 130.446 85.1167 127.879 85.6476C127.578 85.709 127.295 85.8743 127.056 86.127C126.818 86.3798 126.634 86.7113 126.521 87.0887C126.305 87.7394 126.063 88.3743 125.796 88.9906C124.857 91.3535 124.421 92.6254 123.635 94.3465C122.893 95.9626 123.613 97.5262 123.932 98.6873C124.179 99.8245 124.225 101.023 124.067 102.188C122.229 125.968 126.023 123.862 126.023 123.862C134.965 123.699 144.413 121.208 144.413 121.208C140.937 107.182 143.766 80.2333 140.824 81.937Z" fill="#9A062D"/>
<path id="Vector_141" opacity="0.2" d="M140.824 81.937C138.536 83.2555 130.446 85.1167 127.879 85.6476C127.578 85.709 127.295 85.8743 127.056 86.127C126.818 86.3798 126.634 86.7113 126.521 87.0887C126.305 87.7394 126.063 88.3743 125.796 88.9906C124.857 91.3535 124.421 92.6254 123.635 94.3465C122.893 95.9626 123.613 97.5262 123.932 98.6873C124.179 99.8245 124.225 101.023 124.067 102.188C122.229 125.968 126.023 123.862 126.023 123.862C134.965 123.699 144.413 121.208 144.413 121.208C140.937 107.182 143.766 80.2333 140.824 81.937Z" fill="black"/>
<path id="Vector_142" d="M130.729 92.7017L133.222 90.8522C134.21 90.1177 135.078 89.1267 135.775 87.9374C136.473 86.7481 136.985 85.3846 137.282 83.9269C134.82 83.2268 134.641 79.5103 134.859 76.3423L130.541 82.4333C131.117 84.6328 130.925 84.0261 129.192 85.4555C129.1 85.613 126.341 89.3528 130.729 92.7017Z" fill="#CB7A63"/>
<path id="Vector_143" opacity="0.2" d="M134.109 78.9266C134.171 78.0011 134.108 77.0681 133.921 76.1729L132.406 77.7306L130.869 79.8951C131.088 80.6736 131.234 81.4847 131.306 82.3105C132.576 81.7271 133.952 80.4494 134.109 78.9266Z" fill="black"/>
<path id="Vector_144" d="M136.074 74.8716C135.31 79.0607 135.056 80.8518 133.161 82.6429C130.319 85.3326 126.639 83.168 126.447 78.7573C126.276 74.7958 127.551 68.6173 130.878 67.6721C131.611 67.4602 132.372 67.502 133.089 67.7935C133.807 68.085 134.456 68.6165 134.977 69.3377C135.497 70.0589 135.871 70.9458 136.063 71.9143C136.255 72.8828 136.259 73.9007 136.074 74.8716Z" fill="#CB7A63"/>
<path id="Vector_145" d="M131.323 66.7736C129.817 68.3664 131.188 71.1377 131.939 72.4037C132.69 73.6698 135.104 75.6359 134.249 77.5496C133.393 79.4632 134.498 84.9066 137.283 83.9265C140.069 82.9463 138.837 72.4737 137.964 69.6149C137.091 66.7561 133.118 64.8775 131.323 66.7736Z" fill="#263238"/>
<path id="Vector_146" d="M128.891 74.9824C128.557 75.7136 128.149 76.3792 127.678 76.9603C127.79 77.1167 127.926 77.2385 128.077 77.3171C128.227 77.3957 128.389 77.4293 128.551 77.4153L128.891 74.9824Z" fill="#B74D3C"/>
<path id="Vector_147" d="M131.69 73.4772C131.712 73.4822 131.734 73.4822 131.756 73.4772C131.784 73.4532 131.804 73.4152 131.812 73.3714C131.819 73.3277 131.813 73.2818 131.795 73.2439C131.673 72.9674 131.503 72.7345 131.3 72.5648C131.096 72.3951 130.864 72.2938 130.625 72.2695C130.591 72.2709 130.559 72.289 130.535 72.3203C130.511 72.3516 130.496 72.3938 130.494 72.4387C130.495 72.4822 130.508 72.5236 130.531 72.5548C130.553 72.5861 130.584 72.605 130.616 72.6079C130.814 72.6335 131.004 72.7208 131.172 72.8627C131.339 73.0045 131.48 73.1971 131.581 73.4247C131.595 73.4445 131.612 73.4595 131.631 73.4687C131.65 73.4778 131.67 73.4807 131.69 73.4772Z" fill="#263238"/>
<path id="Vector_148" d="M127.049 72.2286C127.069 72.2344 127.09 72.2344 127.11 72.2286C127.278 72.0907 127.468 72.0072 127.664 71.985C127.861 71.9627 128.058 72.0022 128.241 72.1003C128.271 72.1212 128.306 72.1256 128.339 72.1125C128.372 72.0995 128.399 72.0699 128.416 72.0302C128.431 71.9885 128.433 71.9404 128.421 71.8967C128.41 71.8529 128.386 71.817 128.354 71.7969C128.134 71.6708 127.894 71.6172 127.655 71.6406C127.415 71.6639 127.184 71.7635 126.979 71.9311C126.949 71.9532 126.927 71.99 126.918 72.0336C126.908 72.0771 126.911 72.1241 126.927 72.1644C126.938 72.1938 126.956 72.218 126.978 72.2336C127 72.2492 127.024 72.2556 127.049 72.2519V72.2286Z" fill="#263238"/>
<path id="Vector_149" d="M130.792 74.8484C130.744 75.1927 130.569 75.4319 130.399 75.3968C130.228 75.3618 130.132 75.0468 130.18 74.7026C130.228 74.3583 130.403 74.1191 130.569 74.1191C130.735 74.1191 130.835 74.4984 130.792 74.8484Z" fill="#263238"/>
<path id="Vector_150" d="M127.873 74.1484C127.825 74.4927 127.651 74.7319 127.485 74.6969C127.319 74.6618 127.219 74.3526 127.262 74.0026C127.306 73.6525 127.485 73.4191 127.651 73.4542C127.817 73.4892 127.921 73.8042 127.873 74.1484Z" fill="#263238"/>
<path id="Vector_151" d="M127.722 73.4891L127.137 73.104C127.137 73.104 127.368 73.8275 127.722 73.4891Z" fill="#263238"/>
<path id="Vector_152" d="M130.638 74.1893L130.053 73.8042C130.053 73.8042 130.284 74.5218 130.638 74.1893Z" fill="#263238"/>
<path id="Vector_153" d="M135.965 78.6117C135.683 79.354 135.194 79.918 134.603 80.1811C133.813 80.5137 133.389 79.5977 133.581 78.5709C133.756 77.6607 134.376 76.383 135.179 76.488C135.354 76.5167 135.52 76.6029 135.663 76.7388C135.807 76.8747 135.923 77.0561 136.001 77.2667C136.078 77.4773 136.116 77.7104 136.11 77.9452C136.104 78.18 136.054 78.409 135.965 78.6117Z" fill="#CB7A63"/>
<path id="Vector_154" d="M130.402 78.7284C130.515 78.6454 130.622 78.5477 130.721 78.4366C130.728 78.4279 130.734 78.4171 130.738 78.405C130.742 78.393 130.744 78.3799 130.744 78.3666C130.744 78.3534 130.742 78.3403 130.738 78.3282C130.734 78.3161 130.728 78.3054 130.721 78.2966C130.714 78.2865 130.705 78.2785 130.696 78.273C130.687 78.2675 130.677 78.2646 130.666 78.2646C130.656 78.2646 130.646 78.2675 130.636 78.273C130.627 78.2785 130.619 78.2865 130.612 78.2966C130.357 78.5724 130.058 78.7651 129.739 78.8593C129.419 78.9535 129.087 78.9466 128.769 78.8392C128.76 78.8337 128.75 78.831 128.739 78.8314C128.729 78.8317 128.719 78.8351 128.71 78.8412C128.701 78.8473 128.693 78.8561 128.686 78.8668C128.68 78.8776 128.676 78.89 128.673 78.9034C128.667 78.9289 128.669 78.9564 128.678 78.9802C128.687 79.0041 128.702 79.0225 128.721 79.0317C129.002 79.1356 129.296 79.1623 129.585 79.1101C129.874 79.058 130.152 78.9281 130.402 78.7284Z" fill="#263238"/>
<g id="freepik--character-1--inject-22">
<path id="Vector_155" d="M157.787 205.91L154.617 206.558L154.172 201.955L157.49 201.284L157.787 205.91Z" fill="#EBB376"/>
<path id="Vector_156" d="M154.347 205.7L157.945 205.164C158.008 205.154 158.072 205.173 158.126 205.219C158.18 205.265 158.221 205.334 158.242 205.415L159.185 209.137C159.204 209.216 159.212 209.301 159.208 209.384C159.203 209.468 159.186 209.55 159.157 209.624C159.129 209.699 159.09 209.766 159.042 209.82C158.994 209.875 158.939 209.916 158.879 209.942H158.779C157.517 210.099 156.897 210.094 155.312 210.327C154.338 210.473 151.819 210.992 150.47 211.19C149.121 211.389 148.802 209.639 149.339 209.394C151.763 208.297 153.125 207.06 153.836 206.015C153.973 205.832 154.154 205.72 154.347 205.7Z" fill="#9A062D"/>
<path id="Vector_157" opacity="0.2" d="M154.129 201.512L154.404 204.271L157.648 203.699L157.495 201.144L154.129 201.512Z" fill="black"/>
<path id="Vector_158" d="M142.176 114.294C141.896 119.51 144.433 144.364 146.437 155.234C149.1 169.668 153.422 203.46 153.422 203.46L158.203 202.486C158.203 202.486 157.836 173.641 154.785 162.392C154.012 147.182 152.104 113.04 152.104 113.04L142.176 114.294Z" fill="#263238"/>
<path id="Vector_159" opacity="0.2" d="M152.812 129.621C152.637 125.764 150.323 122.66 150.109 130.023C149.974 134.691 151.72 142.614 153.602 148.11C153.3 142.141 153.025 135.496 152.812 129.621Z" fill="black"/>
<path id="Vector_160" d="M180.234 192.819L177.959 195.187L175.453 190.782L177.728 188.419L180.234 192.819Z" fill="#EBB376"/>
<path id="Vector_161" d="M177.584 195.158L180.011 191.546C180.051 191.483 180.108 191.442 180.169 191.432C180.231 191.423 180.293 191.445 180.343 191.494L182.679 193.787C182.735 193.848 182.781 193.923 182.815 194.008C182.849 194.093 182.87 194.186 182.877 194.282C182.884 194.378 182.877 194.475 182.855 194.567C182.834 194.66 182.799 194.745 182.753 194.819C181.88 196.056 181.443 196.57 180.369 198.186C179.71 199.16 178.937 200.519 178.033 201.879C177.13 203.238 176.125 202.036 176.414 201.36C177.723 198.332 177.339 197.386 177.396 195.864C177.399 195.607 177.465 195.359 177.584 195.158Z" fill="#9A062D"/>
<path id="Vector_162" opacity="0.2" d="M175.453 190.782L176.58 192.76L178.876 190.292L177.728 188.419L175.453 190.782Z" fill="black"/>
<path id="Vector_163" d="M148.58 119.393C148.58 119.393 154.902 151.33 158.098 163.279C160.403 171.896 175.562 192.118 175.562 192.118L178.675 189.066C178.675 189.066 172.309 172.217 164.433 161.564C163.018 147.917 162.294 125.204 157.709 118.285L148.58 119.393Z" fill="#263238"/>
<path id="Vector_164" d="M142.209 92.7308C140.777 94.7495 139.297 96.6456 137.76 98.5068C136.223 100.368 127.788 108.098 121.086 109.907C120.975 109.95 120.859 109.962 120.744 109.945C120.63 109.928 120.519 109.88 120.418 109.805C120.317 109.731 120.228 109.63 120.156 109.509C120.084 109.389 120.031 109.25 119.999 109.102C119.967 108.954 119.957 108.798 119.97 108.645C119.984 108.492 120.019 108.344 120.075 108.209C120.131 108.074 120.206 107.955 120.297 107.859C120.387 107.763 120.49 107.692 120.601 107.649C122.457 106.669 138.218 91.3131 139.633 89.4461C139.794 89.209 139.99 89.0179 140.208 88.8841C140.426 88.7503 140.662 88.6766 140.902 88.6675C141.142 88.6583 141.381 88.7139 141.604 88.8308C141.828 88.9477 142.031 89.1236 142.203 89.348C142.374 89.5724 142.51 89.8406 142.602 90.1367C142.694 90.4328 142.741 90.7507 142.739 91.0713C142.737 91.392 142.687 91.7089 142.591 92.003C142.496 92.2971 142.357 92.5625 142.183 92.7833L142.209 92.7308Z" fill="#EBB376"/>
<path id="Vector_165" d="M120.877 107.684L118.021 107.183L119.157 111.36C119.157 111.36 120.872 110.998 121.597 109.324L120.877 107.684Z" fill="#EBB376"/>
<path id="Vector_166" d="M139.86 86.4999C137 87.7485 138.371 89.3471 136.489 91.3949C134.306 93.7695 134.568 94.1545 134.568 94.1545L137.961 99.172C137.961 99.172 142.174 94.9363 143.881 93.3027C145.588 91.6691 142.021 86.4007 139.86 86.4999Z" fill="#9A062D"/>
<path id="Vector_167" opacity="0.1" d="M139.86 86.4999C137 87.7485 138.371 89.3471 136.489 91.3949C134.306 93.7695 134.568 94.1545 134.568 94.1545L137.961 99.172C137.961 99.172 142.174 94.9363 143.881 93.3027C145.588 91.6691 142.021 86.4007 139.86 86.4999Z" fill="black"/>
<path id="Vector_168" d="M116.171 110.152L116.983 111.698C117.072 111.872 117.202 112 117.353 112.064C117.503 112.127 117.665 112.122 117.812 112.048L119.157 111.389L118.022 107.211L116.337 108.833C116.186 108.981 116.084 109.201 116.053 109.447C116.022 109.694 116.064 109.947 116.171 110.152Z" fill="#EBB376"/>
<path id="Vector_169" d="M138.045 89.2479C138.599 97.8244 141.45 113.064 141.765 118.279C142.398 128.945 145.537 155.561 145.537 155.561C149.056 155.561 156.95 152.877 160.971 148.787L161.08 140.199L163.63 147.492L164.59 144.971L161.944 130.146C160.971 119.715 155.832 116.144 155.705 114.528C155.235 105.823 155.355 97.0784 156.063 88.402C156.112 87.8771 156.083 87.3445 155.978 86.8346C155.873 86.3248 155.693 85.8476 155.45 85.4304C155.207 85.0132 154.904 84.6641 154.56 84.4032C154.216 84.1422 153.836 83.9745 153.444 83.9095C153.352 83.9095 153.26 83.9095 153.169 83.9095C152.317 83.8687 151.37 83.8512 150.414 83.9095C148.269 83.9667 146.13 84.226 144.013 84.6855C142.529 85.0531 140.957 85.584 139.813 85.9866C139.283 86.1758 138.817 86.6035 138.495 87.1975C138.173 87.7915 138.014 88.5156 138.045 89.2479Z" fill="#9A062D"/>
<g id="Group" opacity="0.1">
<path id="Vector_170" d="M140.943 111.429C141.354 114.306 141.668 116.733 141.764 118.279C142.397 128.944 145.536 155.56 145.536 155.56C149.055 155.56 156.949 152.876 160.97 148.787L161.079 140.198L163.629 147.491L164.59 144.971L161.944 130.146C160.97 119.714 155.831 116.144 155.705 114.528C155.234 105.822 155.354 97.0779 156.063 88.4015C156.112 87.8766 156.083 87.344 155.977 86.8342C155.872 86.3243 155.693 85.8471 155.45 85.4299C155.206 85.0127 154.904 84.6636 154.56 84.4027C154.215 84.1417 153.836 83.974 153.443 83.9091C153.352 83.9091 153.26 83.9091 153.168 83.9091C152.317 83.8682 151.369 83.8507 150.413 83.9091C145.938 88.2323 142.38 90.0293 141.122 103.162L140.943 111.429Z" fill="white"/>
</g>
<path id="Vector_171" d="M149.144 74.3174C148.93 77.1179 148.864 82.2054 150.432 83.8623C148.313 85.3577 146.41 87.3452 144.813 89.7316C142.94 86.1435 144.031 84.6383 144.031 84.6383C146.271 83.6289 146.061 81.3594 145.515 79.2707L149.144 74.3174Z" fill="#EBB376"/>
<path id="Vector_172" d="M150.544 83.74C150.014 82.9744 149.704 81.9819 149.671 80.9396C149.147 80.8831 148.623 81.0217 148.155 81.34C147.687 81.6582 147.294 82.1437 147.021 82.7424C146.422 84.1076 146.536 85.7995 146.667 87.369C147.933 86.1438 149.278 84.9652 150.544 83.74Z" fill="#9A062D"/>
<path id="Vector_173" opacity="0.1" d="M150.544 83.74C150.014 82.9744 149.704 81.9819 149.671 80.9396C149.147 80.8831 148.623 81.0217 148.155 81.34C147.687 81.6582 147.294 82.1437 147.021 82.7424C146.422 84.1076 146.536 85.7995 146.667 87.369C147.933 86.1438 149.278 84.9652 150.544 83.74Z" fill="white"/>
<path id="Vector_174" opacity="0.2" d="M148.75 74.8604C148.83 76.499 148.648 78.1417 148.217 79.6795C147.912 80.7413 146.907 81.3131 145.881 81.5523C145.85 80.7719 145.73 80.0024 145.523 79.2711L148.75 74.8604Z" fill="black"/>
<path id="Vector_175" d="M144.079 65.1051C144.418 68.3362 144.333 71.6217 143.826 74.8134L142.621 74.4167C142.734 71.762 143.022 68.9849 143.136 66.3303C142.774 68.2323 142.376 70.3618 142.014 72.2638C141.721 72.1413 141.455 71.9662 141.141 71.8496C141.424 70.3093 141.865 68.7282 142.145 67.1821C142.226 66.5533 142.409 65.9559 142.682 65.4318C142.86 65.1892 143.091 65.0273 143.341 64.9687C143.592 64.9101 143.85 64.9578 144.079 65.1051Z" fill="#9A062D"/>
<path id="Vector_176" d="M140.149 67.9992C140.375 68.2696 140.642 68.4723 140.932 68.5937C141.222 68.7151 141.527 68.7524 141.829 68.703C142.13 68.6537 142.42 68.5189 142.679 68.3076C142.938 68.0963 143.161 67.8135 143.331 67.478C143.502 67.1425 143.617 66.7622 143.669 66.3625C143.721 65.9627 143.708 65.5528 143.631 65.1602C143.555 64.7676 143.417 64.4014 143.226 64.086C143.035 63.7707 142.796 63.5135 142.524 63.3317C142.227 63.1629 141.903 63.0968 141.582 63.1396C141.26 63.1825 140.952 63.3328 140.686 63.5768C140.439 63.8246 140.237 64.1427 140.093 64.508C139.95 64.8733 139.869 65.2766 139.857 65.6888C139.839 66.5172 139.712 67.4391 140.149 67.9992Z" fill="#263238"/>
<path id="Vector_177" d="M152.186 70.4786C151.488 75.006 151.291 76.9372 149.305 78.9617C146.345 82.0014 142.319 79.8893 141.992 75.1811C141.686 70.9453 142.865 64.2534 146.393 63.0632C146.991 62.854 147.614 62.8045 148.227 62.9174C148.839 63.0303 149.429 63.3034 149.963 63.7211C150.497 64.1389 150.963 64.6931 151.337 65.352C151.71 66.011 151.982 66.7617 152.138 67.5614C152.327 68.515 152.344 69.5149 152.186 70.4786Z" fill="#EBB376"/>
<path id="Vector_178" d="M143.838 74.9651C143.838 74.9651 144.842 74.475 147.741 74.0083C147.514 75.2452 146.968 76.3012 145.484 76.5404C145.13 76.6427 144.761 76.5534 144.456 76.292C144.152 76.0306 143.937 75.6184 143.86 75.146C143.85 75.0863 143.843 75.0259 143.838 74.9651Z" fill="#263238"/>
<path id="Vector_179" d="M146.079 75.4844C145.505 75.533 144.958 75.823 144.516 76.3129C144.814 76.5106 145.151 76.5818 145.481 76.5171C146.054 76.4679 146.601 76.1734 147.039 75.6769C146.743 75.4777 146.406 75.4102 146.079 75.4844Z" fill="#9D2724"/>
<path id="Vector_180" d="M143.965 74.9127C144.007 75.0518 144.077 75.173 144.167 75.2634C144.257 75.3537 144.364 75.41 144.476 75.4261C145.335 75.2806 146.183 75.0406 147.012 74.7085C147.147 74.6682 147.272 74.5843 147.376 74.4642C147.48 74.3441 147.561 74.1916 147.61 74.02C146.38 74.1888 145.161 74.4873 143.965 74.9127Z" fill="white"/>
<path id="Vector_181" d="M145.99 62.3396C145.036 62.6924 144.182 63.4148 143.535 64.4157C142.887 65.4166 142.476 66.6513 142.354 67.9639C142.899 67.9639 143.497 67.6255 144.048 67.6022C144.123 66.9609 144.297 66.3473 144.558 65.7994C144.818 65.2514 145.16 64.7808 145.563 64.4166C145.285 64.8229 145.073 65.3005 144.939 65.8201C144.804 66.3397 144.751 66.8905 144.781 67.4388C145.349 67.5438 145.886 67.7014 146.453 67.8005C146.694 66.7 147.091 65.6718 147.623 64.7725C147.597 65.9394 147.649 67.0771 147.623 68.2731C148.248 68.7924 148.911 69.37 149.54 69.8951C149.967 68.1751 149.903 66.3052 149.361 64.6442C148.772 62.9931 147.287 61.8962 145.99 62.3396Z" fill="#263238"/>
<path id="Vector_182" d="M148.471 63.0574C148.763 66.2021 149.807 70.2802 151.09 72.7365C152.191 72.9057 153.238 71.2254 153.387 69.4868C153.448 68.6442 153.353 67.7944 153.111 67.0121C152.869 66.2298 152.487 65.5389 151.998 65.0002C151.064 64.02 149.562 62.824 148.471 63.0574Z" fill="#263238"/>
<path id="Vector_183" d="M152.002 66.9376C151.639 70.1652 151.701 73.4527 152.186 76.6517C152.565 76.5351 153.006 76.3834 153.391 76.2667C153.299 73.6121 153.033 70.8291 152.954 68.1745C153.303 70.0823 153.687 72.2177 154.032 74.1197C154.329 74.003 154.591 73.8338 154.884 73.7171C154.613 72.1768 154.19 70.5899 153.919 69.0496C153.839 68.4222 153.659 67.8251 153.391 67.2993C153.216 67.0534 152.989 66.8864 152.74 66.8216C152.491 66.7567 152.233 66.7973 152.002 66.9376Z" fill="#9A062D"/>
<path id="Vector_184" d="M155.867 69.8954C155.641 70.1795 155.372 70.3946 155.078 70.5256C154.785 70.6567 154.473 70.7005 154.165 70.6541C153.857 70.6076 153.561 70.4721 153.296 70.2568C153.031 70.0415 152.805 69.7517 152.633 69.4076C152.461 69.0635 152.347 68.6734 152.299 68.2644C152.251 67.8553 152.271 67.4373 152.356 67.0394C152.442 66.6415 152.591 66.2733 152.794 65.9605C152.997 65.6476 153.248 65.3976 153.531 65.2279C153.829 65.0629 154.153 65.001 154.473 65.0479C154.794 65.0949 155.1 65.2491 155.364 65.4963C155.609 65.7489 155.809 66.071 155.949 66.4392C156.09 66.8074 156.167 67.2127 156.177 67.6258C156.211 68.4076 156.329 69.3119 155.867 69.8954Z" fill="#263238"/>
<path id="Vector_185" d="M153.112 72.8706C153.047 73.3072 152.917 73.7219 152.731 74.0906C152.544 74.4593 152.304 74.7745 152.025 75.0176C151.279 75.6535 150.65 74.8542 150.637 73.7341C150.637 72.7247 151.008 71.1786 151.859 70.9861C152.157 70.9329 152.459 71.0391 152.698 71.2817C152.938 71.5243 153.096 71.8836 153.138 72.2813C153.156 72.4783 153.147 72.6778 153.112 72.8706Z" fill="#EBB376"/>
<path id="Vector_186" d="M147.052 70.8812C147.013 71.2487 146.834 71.5288 146.65 71.4938C146.467 71.4588 146.353 71.1262 146.393 70.7586C146.432 70.3911 146.611 70.111 146.794 70.1752C146.978 70.2394 147.091 70.5078 147.052 70.8812Z" fill="#263238"/>
<path id="Vector_187" d="M143.909 70.2919C143.87 70.6711 143.691 70.9395 143.508 70.8753C143.324 70.8111 143.211 70.5194 143.25 70.1402C143.289 69.761 143.468 69.4984 143.647 69.5276C143.826 69.5568 143.949 69.9243 143.909 70.2919Z" fill="#263238"/>
<path id="Vector_188" d="M143.726 69.598L143.084 69.2129C143.084 69.2129 143.355 69.9772 143.726 69.598Z" fill="#263238"/>
<path id="Vector_189" d="M144.659 71.062C144.324 71.8649 143.908 72.603 143.424 73.2557C143.552 73.417 143.704 73.5392 143.871 73.6138C144.037 73.6883 144.214 73.7135 144.389 73.6875L144.659 71.062Z" fill="#ED893E"/>
<path id="Vector_190" d="M147.904 69.5859C147.879 69.5648 147.859 69.5369 147.843 69.5042C147.747 69.2592 147.61 69.048 147.441 68.8878C147.273 68.7276 147.078 68.6229 146.874 68.5824C146.831 68.5765 146.791 68.5492 146.763 68.5059C146.734 68.4626 146.719 68.4065 146.721 68.349C146.722 68.3199 146.727 68.2913 146.737 68.265C146.746 68.2387 146.759 68.2151 146.775 68.1956C146.792 68.1761 146.811 68.161 146.831 68.1513C146.852 68.1416 146.874 68.1374 146.895 68.139C147.157 68.1873 147.406 68.3184 147.621 68.5214C147.837 68.7244 148.013 68.9934 148.135 69.3059C148.155 69.3593 148.159 69.4211 148.145 69.4779C148.131 69.5346 148.101 69.5818 148.061 69.6092C148.036 69.6243 148.008 69.63 147.98 69.6259C147.953 69.6218 147.926 69.608 147.904 69.5859Z" fill="#263238"/>
<path id="Vector_191" d="M142.904 68.6289H142.878C142.844 68.5923 142.822 68.5393 142.817 68.4814C142.813 68.4236 142.825 68.3655 142.852 68.3197C143.02 68.0571 143.232 67.8511 143.471 67.7184C143.71 67.5856 143.969 67.5298 144.227 67.5554C144.27 67.564 144.308 67.5944 144.334 67.6402C144.36 67.6859 144.372 67.7433 144.367 67.8004C144.36 67.8584 144.337 67.9105 144.302 67.9455C144.267 67.9805 144.222 67.9954 144.179 67.9871C143.973 67.9673 143.766 68.013 143.576 68.1205C143.385 68.228 143.216 68.3942 143.083 68.6055C143.059 68.6342 143.029 68.6519 142.997 68.6561C142.964 68.6603 142.932 68.6508 142.904 68.6289Z" fill="#263238"/>
<path id="Vector_192" d="M146.873 70.1815L146.227 69.7964C146.227 69.7964 146.497 70.5665 146.873 70.1815Z" fill="#263238"/>
<path id="Vector_193" d="M146.636 87.4916C145.874 88.2886 145.178 89.1944 144.563 90.1929C144.449 90.3738 144.34 90.5721 144.226 90.7763C143.2 89.1894 143.004 86.8207 143.423 84.767C143.881 84.6796 144.304 84.3905 144.625 83.9456C144.946 83.5007 145.147 82.9254 145.196 82.3108C145.466 82.1649 145.741 82.48 145.934 82.7717C146.115 83.0838 146.236 83.4503 146.287 83.8393C146.512 85.0338 146.629 86.2599 146.636 87.4916Z" fill="#9A062D"/>
</g>
<path id="Vector_194" d="M128.984 198.611L128.656 201.406L127.613 201.493L122.125 201.978L121.112 202.059L120.902 199.154L121.92 199.084L128.159 198.67L128.984 198.611Z" fill="#9A062D"/>
<path id="Vector_195" d="M169.193 41.0326C169.193 41.0326 174.668 38.5239 177.694 40.5367C180.719 42.5496 184.745 39.6499 184.745 39.6499C184.745 39.6499 182.304 44.6207 182.837 49.6441C182.837 49.6441 179.117 53.0513 176.187 49.8249C173.258 46.5986 168.826 51.1202 168.826 51.1202L169.193 41.0326Z" fill="#9A062D"/>
<path id="Vector_196" opacity="0.5" d="M169.193 41.0326C169.193 41.0326 174.668 38.5239 177.694 40.5367C180.719 42.5496 184.745 39.6499 184.745 39.6499C184.745 39.6499 182.304 44.6207 182.837 49.6441C182.837 49.6441 179.117 53.0513 176.187 49.8249C173.258 46.5986 168.826 51.1202 168.826 51.1202L169.193 41.0326Z" fill="white"/>
<path id="Vector_197" d="M168.892 39.3159L167.967 64.9629L168.682 65.009L169.607 39.362L168.892 39.3159Z" fill="#263238"/>
</g>
<g id="characters-1-and-2">
<path id="Vector_198" d="M103.447 104.901L106.372 109.422L108.245 112.211C108.365 112.385 108.457 112.589 108.516 112.811C108.575 113.034 108.599 113.27 108.588 113.505C108.577 113.74 108.531 113.97 108.452 114.181C108.372 114.392 108.262 114.579 108.127 114.732L107.63 115.315C107.371 115.615 107.042 115.784 106.7 115.794H106.176C105.909 115.805 105.646 115.717 105.415 115.539C105.183 115.362 104.993 115.103 104.866 114.79L104.198 113.098C104.126 112.916 104.079 112.719 104.058 112.515L103.849 110.292L101.465 107.305L103.447 104.901Z" fill="#71403E"/>
<path id="Vector_199" d="M106.119 107.975L102.836 110.309C102.836 110.309 99.2903 103.891 95.5618 96.3067C94.252 93.6055 91.5931 88.6288 91.5931 88.6288C89.8467 83.903 87.4628 72.8062 87.9256 72.8062C90.9818 72.8062 92.8767 74.8073 95.588 82.3277C97.1073 86.5985 106.119 107.975 106.119 107.975Z" fill="#6C041F"/>
<path id="Vector_200" d="M80.4473 194.796L82.1849 206.89L85.5817 206.494L84.8089 194.3L80.4473 194.796Z" fill="#71403E"/>
<path id="Vector_201" d="M85.9136 205.939C85.8968 205.937 85.8812 205.927 85.8693 205.911C85.8574 205.895 85.8499 205.874 85.8481 205.852C85.844 205.831 85.8452 205.808 85.8515 205.788C85.8578 205.768 85.8689 205.752 85.883 205.741C85.9354 205.7 87.1011 204.743 87.6774 204.93C87.7825 204.964 87.8743 205.049 87.935 205.169C87.9713 205.237 87.9908 205.319 87.9908 205.402C87.9908 205.486 87.9713 205.568 87.935 205.636C87.6505 205.925 87.2961 206.064 86.9396 206.027C86.5963 206.037 86.253 206.008 85.9136 205.939ZM86.1711 205.782C86.8086 205.863 87.6687 205.823 87.8171 205.519C87.839 205.478 87.8608 205.414 87.8171 205.28C87.8 205.242 87.7765 205.209 87.7485 205.185C87.7205 205.161 87.6887 205.145 87.6556 205.14C87.6049 205.131 87.5535 205.131 87.5028 205.14C87.0329 205.241 86.5812 205.459 86.1711 205.782Z" fill="#6C041F"/>
<path id="Vector_202" d="M85.8694 205.933C85.8572 205.924 85.8471 205.91 85.8402 205.894C85.8333 205.877 85.8298 205.859 85.8301 205.84C85.8301 205.782 85.8956 204.551 86.3191 204.055C86.4395 203.914 86.5959 203.841 86.7557 203.85C86.9784 203.85 87.0526 204.02 87.0657 204.142C87.1486 204.656 86.354 205.671 85.9523 205.933H85.9174C85.9017 205.939 85.8851 205.939 85.8694 205.933ZM86.7164 204.06C86.6142 204.061 86.516 204.113 86.4413 204.206C86.19 204.605 86.0375 205.099 86.0047 205.618C86.4151 205.268 86.9347 204.451 86.9085 204.166C86.9085 204.166 86.9085 204.061 86.747 204.049H86.6989L86.7164 204.06Z" fill="#6C041F"/>
<path id="Vector_203" d="M85.5723 205.315L81.8524 205.467C81.7842 205.469 81.7188 205.503 81.6671 205.563C81.6154 205.622 81.5807 205.704 81.5686 205.793L80.988 209.877C80.9753 209.963 80.9754 210.052 80.9883 210.137C81.0011 210.223 81.0266 210.305 81.0631 210.377C81.0996 210.45 81.1464 210.512 81.201 210.561C81.2555 210.609 81.3167 210.642 81.3809 210.659H81.4857C82.8261 210.572 84.0136 210.426 85.6858 210.362C87.6548 210.28 87.1615 210.618 89.4798 210.566C90.8726 210.531 91.0822 208.401 90.4884 208.32C87.7684 207.975 87.4627 206.896 86.3887 205.642C86.156 205.402 85.8652 205.286 85.5723 205.315Z" fill="#263238"/>
<path id="Vector_204" opacity="0.2" d="M85.2892 201.867L84.8089 194.3L80.4473 194.796L81.5344 202.124L85.2892 201.867Z" fill="black"/>
<path id="Vector_205" d="M100.714 192.969L102.207 206.155L99.0508 206.353L96.5098 194.591L100.714 192.969Z" fill="#71403E"/>
<path id="Vector_206" opacity="0.2" d="M100.963 195.158L101.552 200.374L97.9197 201.126L96.7715 195.805L100.963 195.158Z" fill="black"/>
<path id="Vector_207" d="M102.942 205.746C102.926 205.742 102.911 205.733 102.898 205.718C102.886 205.704 102.877 205.685 102.872 205.665C102.867 205.643 102.868 205.62 102.875 205.599C102.881 205.578 102.892 205.56 102.907 205.548C102.955 205.501 104.09 204.474 104.653 204.626C104.759 204.653 104.854 204.732 104.919 204.848C104.96 204.912 104.985 204.991 104.991 205.074C104.997 205.157 104.985 205.241 104.954 205.315C104.679 205.621 104.33 205.781 103.972 205.764C103.629 205.797 103.284 205.792 102.942 205.746ZM103.195 205.577C103.832 205.612 104.692 205.519 104.832 205.204C104.832 205.169 104.871 205.099 104.802 204.97C104.783 204.933 104.759 204.901 104.73 204.878C104.701 204.855 104.669 204.84 104.636 204.836C104.583 204.827 104.531 204.827 104.478 204.836C104.02 204.974 103.584 205.225 103.195 205.577Z" fill="#6C041F"/>
<path id="Vector_208" d="M102.897 205.746C102.886 205.735 102.876 205.721 102.869 205.705C102.863 205.689 102.859 205.671 102.857 205.653C102.857 205.595 102.857 204.358 103.294 203.838C103.352 203.763 103.42 203.703 103.495 203.663C103.57 203.623 103.65 203.604 103.731 203.605C103.953 203.605 104.032 203.757 104.045 203.879C104.15 204.381 103.39 205.455 102.997 205.735C102.986 205.74 102.973 205.74 102.962 205.735C102.952 205.742 102.942 205.748 102.93 205.75C102.919 205.752 102.908 205.75 102.897 205.746ZM103.678 203.815C103.576 203.826 103.481 203.883 103.408 203.978C103.178 204.398 103.048 204.9 103.036 205.42C103.438 205.046 103.931 204.218 103.91 203.914C103.91 203.914 103.888 203.809 103.744 203.803H103.696L103.678 203.815Z" fill="#6C041F"/>
<path id="Vector_209" d="M102.557 205.146L98.8461 205.531C98.7783 205.538 98.7144 205.576 98.6652 205.639C98.6159 205.702 98.5842 205.785 98.5754 205.875L98.1388 209.959C98.1284 210.048 98.1316 210.138 98.1481 210.225C98.1647 210.312 98.1943 210.393 98.2351 210.464C98.276 210.535 98.3272 210.594 98.3857 210.638C98.4442 210.681 98.5088 210.708 98.5754 210.718C98.6102 210.723 98.6454 210.723 98.6802 210.718C100.016 210.549 101.199 210.327 102.867 210.134C104.832 209.93 104.352 210.298 106.666 210.099C108.058 209.983 108.189 207.836 107.596 207.795C104.867 207.62 104.539 206.558 103.404 205.379C103.154 205.163 102.851 205.079 102.557 205.146Z" fill="#263238"/>
<path id="Vector_210" d="M93.2261 112.298C93.2261 112.298 98.6006 156.056 99.19 163.378C99.7794 170.7 101.888 197.45 101.888 197.45L97.042 198.617C97.042 198.617 90.7767 178.716 91.2963 165.525C91.2963 165.525 85.8475 140.268 84.1273 134.737C84.1273 134.737 79.0016 125.56 80.9925 111.768L93.2261 112.298Z" fill="#263238"/>
<path id="Vector_211" opacity="0.2" d="M88.8708 153.081C87.8797 148.857 86.9323 145.006 86.3341 143.092C85.4673 142.503 84.6651 141.757 83.9503 140.875C83.6752 139.247 83.5137 138.203 83.5137 138.203L85.8364 125.018C85.8364 125.018 89.0061 139.732 88.8708 153.081Z" fill="black"/>
<path id="Vector_212" d="M102.801 195.508L102.893 198.32L96.2519 199.411L95.7148 196.517L102.801 195.508Z" fill="#263238"/>
<path id="Vector_213" opacity="0.5" d="M102.801 195.508L102.893 198.32L96.2519 199.411L95.7148 196.517L102.801 195.508Z" fill="white"/>
<path id="Vector_214" d="M86.2156 113.401L86.399 136.989L86.9928 148.366C87.535 158.803 87.4591 169.281 86.7657 179.702L85.4559 199.579L80.2167 200.373C80.2167 200.373 77.1212 176.674 79.2256 164.824C79.2256 164.824 73.5498 132.152 74.2702 113.401H86.2156Z" fill="#263238"/>
<path id="Vector_215" d="M79.9629 197.742L80.334 200.513L86.6953 199.638V196.867L79.9629 197.742Z" fill="#263238"/>
<path id="Vector_216" opacity="0.5" d="M79.9629 197.742L80.334 200.513L86.6953 199.638V196.867L79.9629 197.742Z" fill="white"/>
<path id="Vector_217" d="M74.8059 117.614L72.5268 79.3932C71.7934 72.3103 72.7364 69.7957 74.7404 70.3908L87.9257 72.8587C91.2046 74.0256 91.711 76.2893 91.8289 78.1096C91.6215 89.538 92.011 100.972 92.9946 112.328L93.3221 116.161L74.8059 117.614Z" fill="#6C041F"/>
<path id="Vector_218" d="M80.6962 61.9365C80.7224 64.6611 80.4823 69.3111 79.1725 71.4756C79.0216 71.7295 78.9395 72.0441 78.9395 72.3683C78.9395 72.6924 79.0216 73.0071 79.1725 73.2609C80.2228 75.2209 81.7774 76.5941 83.5385 77.1174C85.8 77.7883 86.1843 76.1897 85.9136 74.7837C85.8763 74.6004 85.8119 74.4291 85.7242 74.2797C85.6364 74.1304 85.5271 74.0062 85.4027 73.9144C83.3769 72.4616 83.5734 69.9062 84.285 67.8058L80.6962 61.9365Z" fill="#71403E"/>
<path id="Vector_219" opacity="0.2" d="M82.1548 64.3521L84.2898 67.8235C84.1194 68.3393 83.9835 68.8742 83.8838 69.4221C83.3477 69.1577 82.8683 68.7215 82.4877 68.1519C82.1071 67.5823 81.8369 66.8965 81.7008 66.1548C81.5785 65.2272 81.8972 64.3929 82.1548 64.3521Z" fill="black"/>
<path id="Vector_220" d="M80.4467 57.4324C80.2895 61.5165 80.0451 63.9319 81.4116 66.2481C83.4593 69.7487 87.3887 68.4359 88.454 64.4978C89.4189 60.9155 89.5062 54.8187 86.6595 52.7475C86.0345 52.2866 85.3317 52.0466 84.6179 52.0503C83.904 52.0541 83.2026 52.3014 82.5803 52.769C81.9581 53.2365 81.4354 53.9086 81.062 54.7217C80.6886 55.5348 80.4768 56.4618 80.4467 57.4149V57.4324Z" fill="#71403E"/>
<path id="Vector_221" d="M86.0496 66.3941L84.9668 66.1841C85.1021 66.6858 85.22 67.2051 85.3554 67.7068C85.6173 67.2518 85.7876 66.8317 86.0496 66.3941Z" fill="#263238"/>
<path id="Vector_222" d="M85.1368 59.329C85.1106 59.6616 85.2154 59.9533 85.3813 59.9766C85.5472 60 85.6957 59.7491 85.7219 59.3932C85.7481 59.0373 85.6433 58.7748 85.4774 58.7514C85.3115 58.7281 85.1368 58.9965 85.1368 59.329Z" fill="#263238"/>
<path id="Vector_223" d="M87.9309 59.749C87.9003 60.0816 88.0095 60.3674 88.1754 60.3908C88.3413 60.4141 88.4898 60.1691 88.516 59.8073C88.5422 59.4456 88.4374 59.1889 88.2715 59.1656C88.1055 59.1422 87.9571 59.3931 87.9309 59.749Z" fill="#263238"/>
<path id="Vector_224" d="M86.9391 59.8071C87.2208 60.8357 87.6072 61.8075 88.0874 62.6951C87.9135 62.8528 87.7162 62.9584 87.509 63.0047C87.3018 63.051 87.0895 63.037 86.8867 62.9635L86.9391 59.8071Z" fill="#561616"/>
<path id="Vector_225" d="M84.2892 57.6431C84.2643 57.6424 84.2401 57.6323 84.2193 57.6139C84.1926 57.576 84.1777 57.5259 84.1777 57.4739C84.1777 57.4218 84.1926 57.3717 84.2193 57.3338C84.3771 57.1044 84.5733 56.9283 84.7919 56.8198C85.0104 56.7112 85.2451 56.6735 85.4767 56.7096C85.5147 56.7195 85.5483 56.7488 85.5703 56.7913C85.5923 56.8338 85.601 56.8861 85.5946 56.9371C85.5915 56.9626 85.5845 56.9869 85.5742 57.0088C85.5639 57.0306 85.5503 57.0494 85.5345 57.0641C85.5186 57.0788 85.5006 57.0891 85.4817 57.0943C85.4628 57.0996 85.4433 57.0997 85.4243 57.0946C85.2405 57.0691 85.0548 57.1023 84.8825 57.1916C84.7101 57.2809 84.5562 57.4236 84.4333 57.608C84.4143 57.6317 84.3906 57.6476 84.3651 57.6538C84.3395 57.66 84.3132 57.6563 84.2892 57.6431Z" fill="#263238"/>
<path id="Vector_226" d="M89.1482 58.401C89.1242 58.3925 89.1022 58.3764 89.0839 58.3541C89.0657 58.3317 89.0518 58.3038 89.0434 58.2726C88.9873 58.0408 88.8914 57.8298 88.7633 57.6565C88.6351 57.4833 88.4783 57.3526 88.3055 57.275C88.2706 57.2627 88.24 57.2343 88.2192 57.1948C88.1984 57.1553 88.1888 57.1072 88.192 57.0591C88.2013 57.0081 88.2254 56.9641 88.259 56.9367C88.2925 56.9094 88.3328 56.9009 88.371 56.9132C88.5935 57.0077 88.796 57.1711 88.9622 57.3901C89.1284 57.6091 89.2535 57.8775 89.3272 58.1735C89.3398 58.2214 89.3377 58.2741 89.3213 58.32C89.305 58.3659 89.2757 58.4013 89.2399 58.4185C89.2087 58.4263 89.1765 58.4201 89.1482 58.401Z" fill="#263238"/>
<path id="Vector_227" d="M79.9588 61.5871C78.7636 58.2423 78.4039 54.473 78.9328 50.8345C80.6687 49.4248 82.7013 48.8103 84.7221 49.0842C86.6956 49.4517 87.9355 49.0842 89.3239 51.0095C89.3239 51.0095 88.9397 54.3584 88.5293 55.4086C87.8384 55.1161 87.132 54.8938 86.4162 54.7434C84.9735 54.5398 83.5155 54.6601 82.1025 55.0993C82.2073 56.1495 82.4169 57.328 82.5173 58.3782C82.3135 58.3586 82.1091 58.401 81.9193 58.502C81.7295 58.603 81.5593 58.7602 81.4215 58.9616C81.5306 60.2627 81.2381 61.5754 81.3472 62.8823C80.9805 62.4739 80.1684 62.1588 79.9588 61.5871Z" fill="#263238"/>
<path id="Vector_228" d="M78.636 61.0093C78.9749 61.9395 79.574 62.6541 80.3039 62.9988C81.2775 63.4306 81.8189 62.2929 81.6137 61.0327C81.4128 59.895 80.6662 58.2964 79.6708 58.4014C78.6753 58.5064 78.2344 59.86 78.636 61.0093Z" fill="#71403E"/>
<path id="Vector_229" d="M87.4371 64.335C86.2359 63.9806 85.0153 63.7562 83.7871 63.6641C84.0098 64.6092 84.5381 65.4143 85.9133 65.5719C87.2886 65.7294 87.4371 64.335 87.4371 64.335Z" fill="#263238"/>
<path id="Vector_230" d="M87.3205 64.2937C87.2244 64.4804 87.0847 65.0289 86.7878 65.0639C85.99 64.9649 85.1981 64.7954 84.4171 64.5563C84.1726 64.4804 84.0241 64.002 83.9062 63.6753C85.053 63.7848 86.1933 63.9913 87.3205 64.2937Z" fill="white"/>
<path id="Vector_231" d="M95.8029 102.935L99.0337 106.377L101.09 108.489C101.35 108.758 101.522 109.151 101.572 109.585C101.621 110.019 101.544 110.462 101.356 110.823L101.007 111.482C100.826 111.818 100.562 112.058 100.261 112.159L99.824 112.304C99.5868 112.384 99.3374 112.371 99.1054 112.268C98.8733 112.165 98.6682 111.975 98.5142 111.721L97.6803 110.327C97.5894 110.17 97.5186 109.995 97.4707 109.807L96.9468 107.818L94.4102 105.659L95.8029 102.935Z" fill="#EEC1BB"/>
<path id="Vector_232" d="M47.577 195.011L43.7961 206.289L40.7617 205.07L43.3857 193.337L47.577 195.011Z" fill="#EEC1BB"/>
<path id="Vector_233" opacity="0.2" d="M46.8992 197.036L45.4454 201.371L41.8652 200.116L43.1139 194.544L46.8992 197.036Z" fill="black"/>
<path id="Vector_234" d="M77.6713 194.125L79.0553 206.342L76.0078 207.508L73.4668 195.746L77.6713 194.125Z" fill="#EEC1BB"/>
<path id="Vector_235" opacity="0.2" d="M77.9199 196.312L78.4525 201.015L74.9335 202.544L73.7285 196.96L77.9199 196.312Z" fill="black"/>
<path id="Vector_236" d="M44.6331 205.537C44.6183 205.528 44.6054 205.514 44.5955 205.497C44.5856 205.479 44.579 205.459 44.5763 205.438C44.5753 205.415 44.5799 205.392 44.5894 205.374C44.5988 205.355 44.6126 205.34 44.6287 205.333C44.6811 205.304 45.9385 204.603 46.493 204.913C46.5948 204.968 46.6774 205.072 46.7244 205.204C46.7539 205.278 46.766 205.363 46.759 205.446C46.752 205.529 46.7262 205.608 46.6851 205.671C46.3693 205.896 46.0026 205.959 45.6547 205.846C45.3083 205.781 44.9666 205.678 44.6331 205.537ZM44.9081 205.438C45.5281 205.654 46.3795 205.794 46.5672 205.525C46.5934 205.496 46.6196 205.432 46.5672 205.292C46.5547 205.249 46.5352 205.211 46.5103 205.18C46.4854 205.149 46.4556 205.125 46.4231 205.111C46.3763 205.082 46.3261 205.064 46.2747 205.059C45.8055 205.07 45.342 205.199 44.9081 205.438Z" fill="#6C041F"/>
<path id="Vector_237" d="M44.59 205.519C44.5795 205.507 44.5716 205.492 44.567 205.474C44.5624 205.457 44.5613 205.438 44.5638 205.42C44.5638 205.362 44.7865 204.16 45.2624 203.763C45.3302 203.705 45.4061 203.665 45.4857 203.647C45.5653 203.629 45.6468 203.633 45.7252 203.658C45.9435 203.722 45.9959 203.886 45.9959 204.008C46.0177 204.533 45.1227 205.368 44.6861 205.537H44.6512C44.6407 205.54 44.6297 205.541 44.6191 205.538C44.6084 205.535 44.5985 205.528 44.59 205.519ZM45.651 203.851C45.5502 203.834 45.4483 203.865 45.3628 203.938C45.0716 204.283 44.8673 204.739 44.7778 205.245C45.2144 204.988 45.8387 204.312 45.8474 204.002C45.8474 203.973 45.8474 203.892 45.699 203.851H45.651Z" fill="#6C041F"/>
<path id="Vector_238" d="M44.3494 204.842L40.6601 204.201C40.5924 204.187 40.5232 204.205 40.4643 204.252C40.4054 204.299 40.3605 204.371 40.3371 204.457L39.2936 208.355C39.2705 208.437 39.2598 208.524 39.262 208.611C39.2642 208.699 39.2794 208.785 39.3065 208.865C39.3337 208.944 39.3724 209.016 39.4204 209.076C39.4684 209.135 39.5247 209.182 39.5861 209.212L39.6865 209.247C41.0225 209.446 42.2144 209.557 43.8692 209.831C45.8251 210.175 45.2968 210.414 47.5934 210.846C48.9774 211.109 49.4358 209.049 48.8595 208.845C46.2137 207.923 46.0391 206.791 45.1309 205.344C44.9263 205.053 44.6476 204.874 44.3494 204.842Z" fill="#263238"/>
<path id="Vector_239" d="M79.4968 204.218C79.4804 204.223 79.4633 204.221 79.4477 204.213C79.4321 204.205 79.4188 204.19 79.4095 204.171C79.401 204.153 79.3965 204.132 79.3965 204.11C79.3965 204.089 79.401 204.067 79.4095 204.049C79.4444 203.985 80.2259 202.48 80.8066 202.34C80.9139 202.314 81.0245 202.343 81.1166 202.421C81.1728 202.46 81.2184 202.521 81.2467 202.597C81.275 202.672 81.2844 202.758 81.2738 202.841C81.2257 203.145 80.8634 203.489 80.4835 203.734C80.1657 203.933 79.8356 204.095 79.4968 204.218ZM79.6889 203.938C80.2958 203.664 81.0686 203.162 81.1166 202.806C81.1166 202.76 81.1166 202.69 81.0249 202.602C80.9974 202.576 80.9659 202.558 80.9327 202.55C80.8995 202.542 80.8654 202.544 80.8328 202.555C80.7816 202.569 80.7318 202.59 80.6844 202.62C80.2936 202.972 79.9559 203.419 79.6889 203.938Z" fill="#6C041F"/>
<path id="Vector_240" d="M79.4615 204.236C79.4471 204.232 79.4335 204.224 79.4221 204.212C79.4106 204.199 79.4017 204.184 79.396 204.166C79.396 204.113 79.0686 202.952 79.3087 202.269C79.3415 202.171 79.3891 202.084 79.4485 202.011C79.5078 201.939 79.5776 201.884 79.6536 201.849C79.8632 201.744 79.9767 201.849 80.0247 201.948C80.2561 202.369 79.8326 203.734 79.5445 204.183C79.5346 204.188 79.5238 204.188 79.5139 204.183C79.5088 204.197 79.5014 204.208 79.4923 204.217C79.4832 204.227 79.4727 204.233 79.4615 204.236ZM79.6711 202.059C79.5798 202.12 79.5072 202.221 79.4659 202.345C79.3608 202.846 79.3745 203.378 79.5052 203.868C79.7802 203.32 80.016 202.316 79.8981 202.048C79.8981 202.048 79.8501 201.96 79.7104 202.048H79.6711V202.059Z" fill="#6C041F"/>
<path id="Vector_241" d="M78.9757 203.839L75.6183 205.98C75.5563 206.02 75.5063 206.086 75.4762 206.169C75.4461 206.251 75.4377 206.345 75.4524 206.435L76.1509 210.472C76.1649 210.558 76.1913 210.639 76.2287 210.711C76.2662 210.782 76.3138 210.844 76.369 210.891C76.4241 210.938 76.4857 210.97 76.5502 210.985C76.6147 211.001 76.6808 210.999 76.7447 210.98L76.8451 210.933C78.0458 210.134 79.0936 209.358 80.5999 208.401C82.3812 207.263 82.0319 207.818 84.1363 206.546C85.4068 205.764 84.9528 203.704 84.3852 203.949C81.7918 205.116 81.1849 204.27 79.8227 203.704C79.5377 203.608 79.236 203.656 78.9757 203.839Z" fill="#263238"/>
<path id="Vector_242" d="M70.4844 117.223C70.4844 117.223 74.2959 153.045 74.8853 160.356C75.4747 167.666 78.4305 197.964 78.4305 197.964L73.999 199.131C73.999 199.131 68.5196 177.094 67.4936 162.497C67.4936 162.497 62.8046 140.776 61.0844 135.251C61.0844 135.251 55.9587 127.299 57.9496 113.506L70.4844 117.223Z" fill="#263238"/>
<path id="Vector_243" opacity="0.2" d="M63.6208 145.25C62.634 141.032 61.6823 137.176 61.0841 135.262C60.2173 134.672 59.4151 133.926 58.7003 133.045C58.4252 131.417 58.2637 130.379 58.2637 130.379L61.787 123.739C61.787 123.739 62.5205 137.572 63.6208 145.25Z" fill="black"/>
<path id="Vector_244" d="M62.1107 114.749C62.1107 114.749 60.8489 156.995 58.2599 166.091C55.6708 175.187 46.8122 198.582 46.8122 198.582L42.6602 196.004C42.6602 196.004 47.3929 168.658 51.235 162.334L50.436 132.725C50.436 132.725 47.2663 118.769 50.2526 111.254L62.1107 114.749Z" fill="#263238"/>
<path id="Vector_245" d="M48.1249 198.384L47.0857 201.021L41.0039 197.923L41.6501 194.901L48.1249 198.384Z" fill="#6C041F"/>
<path id="Vector_246" d="M79.1331 195.846L79.4344 198.629L72.9072 200.601L72.1562 197.794L79.1331 195.846Z" fill="#6C041F"/>
<path id="Vector_247" d="M97.5229 104.183L95.4927 107.555L76.9241 89.9881L74.4878 87.8469L73.8941 87.3276C73.3323 86.7539 72.9 85.9839 72.645 85.1026C72.39 84.2213 72.3221 83.263 72.4489 82.3335C72.6672 80.5015 73.5622 79.7197 74.3219 78.3895C74.4493 78.1785 74.6117 78.0099 74.7962 77.8971C74.9807 77.7842 75.1822 77.7302 75.385 77.7393C75.5878 77.7483 75.7862 77.8202 75.9647 77.9492C76.1431 78.0783 76.2967 78.2609 76.4132 78.4828L97.5229 104.183Z" fill="#6C041F"/>
<g id="Group_2" opacity="0.2">
<path id="Vector_248" d="M97.5229 104.183L95.4927 107.555L76.9241 89.9881L74.4878 87.8469L73.8941 87.3276C73.3323 86.7539 72.9 85.9839 72.645 85.1026C72.39 84.2213 72.3221 83.263 72.4489 82.3335C72.6672 80.5015 73.5622 79.7197 74.3219 78.3895C74.4493 78.1785 74.6117 78.0099 74.7962 77.8971C74.9807 77.7842 75.1822 77.7302 75.385 77.7393C75.5878 77.7483 75.7862 77.8202 75.9647 77.9492C76.1431 78.0783 76.2967 78.2609 76.4132 78.4828L97.5229 104.183Z" fill="black"/>
</g>
<path id="Vector_249" d="M59.4598 72.3219L74.5269 76.9543C74.9429 77.0818 75.3358 77.3185 75.6827 77.6506C76.0297 77.9827 76.3238 78.4036 76.548 78.8889C76.7722 79.3742 76.9221 79.9141 76.9888 80.4774C77.0556 81.0407 77.038 81.6161 76.9369 82.1702L75.3652 88.6404C73.3229 97.0157 71.8013 105.602 70.8158 114.311L70.484 117.229L50.252 111.248L55.5741 75.6591C55.6609 75.096 55.831 74.5617 56.0745 74.0876C56.3179 73.6135 56.6297 73.2092 56.9917 72.8983C57.3536 72.5875 57.7584 72.3763 58.1823 72.2774C58.6061 72.1784 59.0405 72.1935 59.4598 72.3219Z" fill="#6C041F"/>
<path id="Vector_250" opacity="0.2" d="M59.4598 72.3219L74.5269 76.9543C74.9429 77.0818 75.3358 77.3185 75.6827 77.6506C76.0297 77.9827 76.3238 78.4036 76.548 78.8889C76.7722 79.3742 76.9221 79.9141 76.9888 80.4774C77.0556 81.0407 77.038 81.6161 76.9369 82.1702L75.3652 88.6404C73.3229 97.0157 71.8013 105.602 70.8158 114.311L70.484 117.229L50.252 111.248L55.5741 75.6591C55.6609 75.096 55.831 74.5617 56.0745 74.0876C56.3179 73.6135 56.6297 73.2092 56.9917 72.8983C57.3536 72.5875 57.7584 72.3763 58.1823 72.2774C58.6061 72.1784 59.0405 72.1935 59.4598 72.3219Z" fill="black"/>
<path id="Vector_251" opacity="0.5" d="M72.7106 94.9822C72.6586 95.2861 72.525 95.554 72.3351 95.7349C72.0335 96.0224 71.6872 96.2152 71.3221 96.2991C70.957 96.3829 70.5824 96.3556 70.2263 96.2191C69.8126 95.9995 69.4364 95.6703 69.1205 95.2511C68.8046 94.832 68.5555 94.3317 68.3882 93.7804C68.2925 93.4874 68.2786 93.1583 68.3489 92.8527L69.5277 87.6019C69.6038 87.2657 69.775 86.9825 70.005 86.8125C70.2349 86.6425 70.5055 86.5991 70.759 86.6917C71.5405 86.9717 72.4704 87.316 73.1515 87.5785C73.4047 87.6777 73.6187 87.9055 73.7477 88.213C73.8766 88.5206 73.9103 88.8835 73.8414 89.2238C73.4266 91.2366 72.9114 93.9496 72.7106 94.9822Z" fill="white"/>
<path id="Vector_252" d="M74.3486 111.033L93.1398 111.663L94.2663 120.572L87.1366 125.49L74.2656 120.782L74.3486 111.033Z" fill="#263238"/>
<path id="Vector_253" opacity="0.2" d="M54.0547 86.8494C55.2859 85.8576 59.2502 73.2729 59.2502 73.2729C58.1068 74.4904 56.8969 75.5923 55.6308 76.5693C55.2597 79.2823 54.4302 84.1306 54.0547 86.8494Z" fill="black"/>
<path id="Vector_254" d="M42.7859 49.02L41.5634 43.2965L40.7514 39.7317C40.647 39.2736 40.6797 38.7793 40.8426 38.3527C41.0055 37.9262 41.2858 37.6007 41.6246 37.4447L42.2358 37.1588C42.5501 37.0044 42.8952 37.0044 43.2094 37.1588L43.6766 37.4155C43.9215 37.5455 44.1336 37.766 44.2883 38.0511C44.4429 38.3363 44.5336 38.6743 44.5498 39.0258L44.624 40.9453C44.633 41.1577 44.6153 41.3707 44.5716 41.5754L44.0957 43.7866L45.3095 47.8006L42.7859 49.02Z" fill="#EEC1BB"/>
<path id="Vector_255" d="M59.758 72.4036C59.7357 72.0958 59.6637 71.7981 59.5468 71.5312C59.43 71.2642 59.2712 71.0344 59.0813 70.8575C57.5488 69.4514 53.4055 65.3966 50.8994 60.7642C47.8083 55.0174 44.835 44.6265 44.835 44.6265L41.709 46.12C41.709 46.12 43.6344 61.7443 46.5116 67.0769C48.8605 71.4526 53.4972 76.8785 55.3615 78.9614C55.8132 79.4672 56.3868 79.7371 56.9761 79.7211C57.5653 79.705 58.1302 79.404 58.5661 78.8738C59.2428 77.9929 60.0069 76.1609 59.758 72.4036Z" fill="#6C041F"/>
<path id="Vector_256" opacity="0.2" d="M59.758 72.4036C59.7357 72.0958 59.6637 71.7981 59.5468 71.5312C59.43 71.2642 59.2712 71.0344 59.0813 70.8575C57.5488 69.4514 53.4055 65.3966 50.8994 60.7642C47.8083 55.0174 44.835 44.6265 44.835 44.6265L41.709 46.12C41.709 46.12 43.6344 61.7443 46.5116 67.0769C48.8605 71.4526 53.4972 76.8785 55.3615 78.9614C55.8132 79.4672 56.3868 79.7371 56.9761 79.7211C57.5653 79.705 58.1302 79.404 58.5661 78.8738C59.2428 77.9929 60.0069 76.1609 59.758 72.4036Z" fill="black"/>
<g id="Group_3" opacity="0.5">
<path id="Vector_257" d="M69.7202 75.4725C69.7202 75.4725 69.5849 77.4328 67.904 77.1528C66.223 76.8727 64.171 73.518 64.171 73.518L62.6211 73.2729L65.6293 79.4281L67.8647 78.4421L69.7071 80.2566L70.8073 75.9101L69.7202 75.4725Z" fill="white"/>
</g>
<path id="Vector_258" d="M58.66 78.168L56.9136 83.3372L55.7697 86.5402C55.6174 86.9531 55.593 87.4295 55.7017 87.8663C55.8104 88.3031 56.0434 88.6651 56.3504 88.8739L56.8962 89.259C57.1791 89.4581 57.5068 89.5121 57.8174 89.4107L58.2846 89.2648C58.5271 89.1837 58.7477 89.0134 58.9214 88.7731C59.095 88.5328 59.2147 88.2321 59.2669 87.9054L59.542 86.1085C59.5664 85.9154 59.5664 85.7181 59.542 85.525L59.3106 83.378L60.8692 79.8249L58.66 78.168Z" fill="#71403E"/>
<path id="Vector_259" d="M73.0507 76.6217C73.0507 76.6217 66.7593 74.568 64.3929 73.2903C63.9563 73.0628 60.5159 82.6252 60.5159 82.6252L57.1934 80.9799C57.1934 80.9799 59.6165 68.7279 62.8211 68.0219C66.5759 67.1934 74.7403 70.4023 74.7403 70.4023C76.7225 70.8632 76.6395 77.7185 73.0507 76.6217Z" fill="#6C041F"/>
<path id="Vector_260" d="M70.1824 75.9508L70.0907 76.19C69.915 76.6427 69.6501 77.0227 69.3247 77.289C68.9992 77.5553 68.6255 77.6978 68.2439 77.7011C67.8989 77.7011 67.0956 77.701 65.3492 76.0849C64.8246 75.5291 64.3743 74.8584 64.0176 74.1013C64.0576 73.9509 64.1167 73.8107 64.1922 73.687C65.502 71.5225 65.7465 66.8726 65.7247 64.1479L69.3092 70.0464C68.6237 72.0418 68.4185 74.4747 70.1824 75.9508Z" fill="#EEC1BB"/>
<path id="Vector_261" opacity="0.2" d="M66.576 67.1821L69.2218 70.2626C69.0638 70.8077 68.9411 71.3698 68.8551 71.9429C68.2865 71.7662 67.7582 71.4087 67.3151 70.9009C66.8719 70.393 66.5271 69.7498 66.3097 69.0258C66.0958 68.174 66.3228 67.2638 66.576 67.1821Z" fill="black"/>
<path id="Vector_262" d="M72.6022 54.3291C72.6022 54.3291 75.6933 58.6173 73.2178 60.1167C70.7422 61.6162 72.6022 54.3291 72.6022 54.3291Z" fill="#263238"/>
<path id="Vector_263" d="M65.4892 59.6264C65.3277 63.7104 65.0832 66.1258 66.4454 68.4479C68.493 71.9485 72.4224 70.6416 73.4921 66.6976C74.457 63.1153 74.553 57.0185 71.702 54.9473C71.0768 54.488 70.3743 54.2494 69.6609 54.254C68.9474 54.2585 68.2467 54.5061 67.6248 54.9733C67.0029 55.4405 66.4804 56.1119 66.1067 56.9241C65.733 57.7362 65.5205 58.6623 65.4892 59.6147V59.6264Z" fill="#EEC1BB"/>
<path id="Vector_264" d="M70.1484 61.5282C70.1222 61.8608 70.2314 62.1525 70.3929 62.1758C70.5544 62.1992 70.7073 61.9483 70.7378 61.5924C70.7684 61.2365 70.6549 60.9739 70.4933 60.9506C70.3318 60.9273 70.179 61.2015 70.1484 61.5282Z" fill="#263238"/>
<path id="Vector_265" d="M72.9552 61.9544C72.929 62.2869 73.0338 62.5728 73.1997 62.5962C73.3656 62.6195 73.514 62.3745 73.5402 62.0127C73.5664 61.651 73.4616 61.3885 73.3001 61.3651C73.1385 61.3418 72.9814 61.6218 72.9552 61.9544Z" fill="#263238"/>
<path id="Vector_266" d="M71.903 61.9253C72.1146 62.9819 72.4333 63.9948 72.8505 64.9358C72.6667 65.0718 72.4631 65.1532 72.2536 65.1744C72.0441 65.1955 71.8337 65.1559 71.6367 65.0583L71.903 61.9253Z" fill="#D4827D"/>
<path id="Vector_267" d="M69.7736 59.8132C69.7488 59.8116 69.7247 59.8016 69.7037 59.784C69.677 59.7461 69.6621 59.696 69.6621 59.644C69.6621 59.5919 69.677 59.5418 69.7037 59.5039C69.8608 59.275 70.0563 59.0991 70.2741 58.9906C70.4919 58.8821 70.7258 58.8441 70.9567 58.8797C70.9955 58.8882 71.0301 58.917 71.0531 58.9597C71.076 59.0023 71.0853 59.0554 71.079 59.1072C71.0715 59.1595 71.0491 59.2058 71.0165 59.2363C70.9839 59.2668 70.9436 59.2791 70.9043 59.2706C70.7215 59.2443 70.5367 59.2767 70.3651 59.3649C70.1935 59.4532 70.0401 59.5949 69.9176 59.7781C69.8979 59.8001 69.8743 59.8149 69.849 59.821C69.8238 59.8272 69.7978 59.8245 69.7736 59.8132Z" fill="#263238"/>
<path id="Vector_268" d="M73.9285 60.6299C73.9042 60.6224 73.8818 60.6067 73.8634 60.5842C73.8451 60.5617 73.8314 60.5332 73.8237 60.5015C73.7679 60.2689 73.6721 60.0569 73.544 59.8826C73.4159 59.7084 73.259 59.5766 73.0859 59.498C73.0671 59.4925 73.0494 59.4821 73.0337 59.4673C73.018 59.4526 73.0047 59.4338 72.9946 59.412C72.9844 59.3903 72.9776 59.3661 72.9745 59.3408C72.9714 59.3154 72.9722 59.2896 72.9767 59.2647C72.986 59.2136 73.0101 59.1696 73.0436 59.1423C73.0772 59.1149 73.1175 59.1065 73.1557 59.1188C73.3785 59.2124 73.5814 59.3755 73.7477 59.5946C73.9139 59.8138 74.0388 60.0826 74.1119 60.379C74.1245 60.427 74.1224 60.4797 74.106 60.5256C74.0896 60.5715 74.0604 60.6069 74.0245 60.6241C73.9942 60.6422 73.9599 60.6443 73.9285 60.6299Z" fill="#263238"/>
<path id="Vector_269" d="M70.315 66.1959C70.2028 66.1109 70.0962 66.0133 69.9963 65.9042C69.9889 65.8954 69.9829 65.8847 69.9788 65.8726C69.9748 65.8605 69.9727 65.8474 69.9727 65.8342C69.9727 65.8209 69.9748 65.8079 69.9788 65.7958C69.9829 65.7837 69.9889 65.7729 69.9963 65.7642C70.0114 65.7465 70.0308 65.7368 70.0509 65.7368C70.071 65.7368 70.0903 65.7465 70.1055 65.7642C70.3593 66.0412 70.6583 66.2346 70.9783 66.3289C71.2983 66.4231 71.6305 66.4156 71.9479 66.3068C71.967 66.2992 71.9876 66.3016 72.0054 66.3135C72.0233 66.3254 72.037 66.346 72.044 66.371C72.0474 66.384 72.0489 66.3978 72.0484 66.4116C72.0478 66.4254 72.0453 66.4389 72.0408 66.4514C72.0363 66.4638 72.0301 66.475 72.0224 66.4842C72.0147 66.4935 72.0057 66.5006 71.9959 66.5051C71.7145 66.6061 71.4208 66.6308 71.1321 66.5777C70.8434 66.5246 70.5656 66.3948 70.315 66.1959Z" fill="#263238"/>
<path id="Vector_270" d="M65.8603 63.5766C65.8603 63.5766 67.336 63.5241 67.0609 61.8263C66.7859 60.1285 68.3096 58.635 68.1524 56.3771C68.1524 56.3771 76.3911 59.1075 74.3696 53.2966C73.5444 51.3187 70.2219 51.1145 67.7202 51.3654C64.437 51.6921 65.0657 54.2301 65.0657 54.2301C61.4899 54.8893 62.5116 64.7377 65.8603 63.5766Z" fill="#263238"/>
<path id="Vector_271" d="M63.6652 63.2027C64.0023 64.1325 64.5999 64.8473 65.3287 65.1922C66.2979 65.6298 66.6385 64.247 66.6385 63.226C66.4376 62.0942 65.6954 60.4897 64.7 60.5947C63.7045 60.6998 63.2592 62.0533 63.6652 63.2027Z" fill="#EEC1BB"/>
<path id="Vector_272" d="M68.625 24.7955C60.6177 30.9507 50.362 22.1701 42.704 30.6298C42.6604 26.0829 42.6327 21.61 42.6211 17.2109C50.3882 7.77683 62.8837 19.3171 70.5417 10.8398C70.581 15.4314 68.6119 20.4139 68.625 24.7955Z" fill="#6C041F"/>
<path id="Vector_273" opacity="0.5" d="M68.625 24.7955C60.6177 30.9507 50.362 22.1701 42.704 30.6298C42.6604 26.0829 42.6327 21.61 42.6211 17.2109C50.3882 7.77683 62.8837 19.3171 70.5417 10.8398C70.581 15.4314 68.6119 20.4139 68.625 24.7955Z" fill="white"/>
<path id="Vector_274" d="M42.6925 15.4098L41.9766 15.4238L42.2583 41.0979L42.9742 41.0838L42.6925 15.4098Z" fill="#263238"/>
</g>
</g>
</svg>
